<?xml version="1.0" standalone="no"?>
<!DOCTYPE svg PUBLIC "-//W3C//DTD SVG 1.1//EN" "http://www.w3.org/Graphics/SVG/1.1/DTD/svg11.dtd" >
<svg>
<metadata>
Created by FontForge 20090914 at Tue Apr 28 02:44:17 2015
 By www-data
</metadata>
<defs>
<font id="iconfont" horiz-adv-x="1024" >
  <font-face 
    font-family="iconfont"
    font-weight="500"
    font-stretch="normal"
    units-per-em="1024"
    panose-1="2 0 6 3 0 0 0 0 0 0"
    ascent="812"
    descent="-212"
    bbox="-0.0858498 -159.004 1170 878.002"
    underline-thickness="50"
    underline-position="-100"
    unicode-range="U+E600-U+E679"
  />
<missing-glyph horiz-adv-x="374" 
d="M34 0v682h272v-682h-272zM68 34h204v614h-204v-614z" />
    <glyph glyph-name=".notdef" horiz-adv-x="374" 
d="M34 0v682h272v-682h-272zM68 34h204v614h-204v-614z" />
    <glyph glyph-name="uniE600" unicode="&#xe600;" 
d="M512 735c-123.333 0 -228.666 -43.667 -315.999 -131s-131 -192.666 -131 -315.999s43.667 -228.666 131 -315.999s192.666 -131 315.999 -131s228.666 43.667 315.999 131s131 192.666 131 315.999s-43.667 228.666 -131 315.999s-192.666 131 -315.999 131zM512 705
c56.667 0 110.663 -11.001 161.996 -33.001s95.666 -51.667 132.999 -89s67 -81.666 89 -132.999s33 -105.333 33 -162c0 -104 -34.333 -195.333 -103 -274l-2 4l-1 5c-0.666992 2 -1.33398 3.66699 -2.00098 5c-15.333 39.333 -38.166 74.5 -68.499 105.5
s-65.166 55.167 -104.499 72.5l-1 1c34 36 51 78.667 51 128c0 33.333 -8.33301 64.333 -25 93s-39.167 51.334 -67.5 68.001s-59.5 25 -93.5 25c-51.333 0 -95.166 -18.167 -131.499 -54.5s-54.5 -80.166 -54.5 -131.499c0 -16.667 2 -32.834 6 -48.501
s9.83301 -30.167 17.5 -43.5s16.834 -25.333 27.501 -36c0 -0.666992 -0.333008 -1 -1 -1c-39.333 -17.333 -74.166 -41.5 -104.499 -72.5s-53.166 -66.167 -68.499 -105.5c-0.666992 -1.33301 -1.16699 -2.5 -1.5 -3.5s-0.833008 -2.16699 -1.5 -3.5s-1 -2.5 -1 -3.5
s-0.333008 -2.16699 -1 -3.5c-68.667 78.667 -103 170 -103 274c0 107.333 36 200.666 108 279.999c70 77.333 156.667 122 260 134c16.667 2 33 3 49 3zM615.996 217.999c-9.33301 -8.66699 -19.3311 -15.6689 -29.998 -21.002c-23.333 -12.667 -48 -19 -74 -19
c-8.66699 0 -17.334 0.666992 -26.001 2s-17 3.5 -25 6.5s-15.667 6.5 -23 10.5c-5.33301 2.66699 -10.5 5.83398 -15.5 9.50098s-9.83301 7.5 -14.5 11.5c-34.667 31.333 -52 70.333 -52 117c0 42.667 15.167 79.334 45.5 110.001s67.166 46 110.499 46
c28 0 54.167 -7 78.5 -21s43.333 -33 57 -57s20.5 -50 20.5 -78c0 -46.667 -17.333 -85.667 -52 -117zM220.998 -11.0029c0 0.666992 0.332031 1.33496 0.999023 2.00195c0.666992 4.66699 1.33398 8 2.00098 10c14 41.333 36.5 78.166 67.5 110.499s67.5 56.833 109.5 73.5
c33.333 -24.667 70.333 -37 111 -37c20.667 0 40.334 3.16699 59.001 9.5s36 15.5 52 27.5c42 -16 78.5 -40.333 109.5 -73s53.5 -69.667 67.5 -111c0.666992 -2 1.66699 -6 3 -12c-15.333 -14.667 -31.5 -28.167 -48.5 -40.5s-35 -23.333 -54 -33
s-38.667 -17.834 -59 -24.501s-41.333 -11.667 -63 -15s-43.834 -5 -66.501 -5c-112.667 0 -209.667 39.333 -291 118z" />
    <glyph glyph-name="uniE601" unicode="&#xe601;" 
d="M722 691c-22 0 -43.667 -3 -65 -9s-41 -14.333 -59 -25s-34.333 -23.834 -49 -39.501s-27 -32.834 -37 -51.501c-10 18.667 -22.333 35.834 -37 51.501s-31 28.834 -49 39.501s-37.667 19 -59 25s-43 9 -65 9c-65.333 0 -121.166 -22.833 -167.499 -68.5
s-69.5 -100.5 -69.5 -164.5c0 -24 1.5 -45.5 4.5 -64.5s10.5 -41.5 22.5 -67.5s28.667 -52 50 -78c42 -52 165.333 -164.667 370 -338v-1v0v1c205.333 174.667 328.666 287.334 369.999 338.001c31.333 38 52 73.167 62 105.5s15 67.166 15 104.499
c0 31.333 -6.33301 61.5 -19 90.5s-29.5 53.833 -50.5 74.5s-46.167 37.167 -75.5 49.5s-60 18.5 -92 18.5zM859 266c-39.333 -48 -154.332 -153.334 -344.999 -316.001l-2 -2l-218 192c-65.333 59.333 -108.333 101.333 -129 126c-29.333 36 -48.333 68.667 -57 98
s-13 60.666 -13 93.999c0 56 20.167 103.833 60.5 143.5s89.166 59.5 146.499 59.5c38.667 0 74.5 -9.66699 107.5 -29s58.5 -46 76.5 -80l26 -49l26 49c18 34 43.5 60.667 76.5 80s68.833 29 107.5 29c28 0 54.833 -5.33301 80.5 -16s47.667 -25 66 -43s33 -39.667 44 -65
s16.5 -51.666 16.5 -78.999c0 -33.333 -4.33301 -64.666 -13 -93.999s-27.667 -62 -57 -98z" />
    <glyph glyph-name="uniE602" unicode="&#xe602;" 
d="M334 196c7.33301 8 15.668 16.3291 25.001 24.9961c-7.33301 0.666992 -14.5 1.83398 -21.5 3.50098s-13.667 3.66699 -20 6s-12.5 4.83301 -18.5 7.5c-26 14 -46.833 33.5 -62.5 58.5s-23.5 52.5 -23.5 82.5c0 44 15.667 81.667 47 113s68.666 47 111.999 47
c5.33301 0 11 -0.333008 17 -1c4 9.33301 8.66699 18 14 26c-10.667 2 -21 3 -31 3c-51.333 0 -95.333 -18.333 -132 -55s-55 -81 -55 -133c0 -20 3.33301 -39.667 10 -59s15.834 -36.833 27.501 -52.5s25.5 -29.167 41.5 -40.5
c-52.667 -21.333 -96.834 -55.666 -132.501 -102.999s-57.834 -101.666 -66.501 -162.999h28c9.33301 59.333 32.333 111.5 69 156.5s81.334 75.5 134.001 91.5c12 -5.33301 24.667 -9.66602 38 -12.999zM736.002 258.996c27.333 19.333 48.832 43.833 64.499 73.5
s23.5 61.834 23.5 96.501c0 58 -20.333 107.5 -61 148.5s-90 61.5 -148 61.5c-38 0 -73 -9.5 -105 -28.5s-57.333 -44.5 -76 -76.5s-28 -67 -28 -105c0 -34.667 7.83301 -66.834 23.5 -96.501s36.834 -54.167 63.501 -73.5c-58.667 -24 -108 -62.5 -148 -115.5
s-64.667 -113.833 -74 -182.5h28c10 66.667 35.5 125.167 76.5 175.5s90.833 84.833 149.5 103.5c28.667 -13.333 58.667 -20 90 -20s61.333 6.66699 90 20c58.667 -18.667 108.5 -53.167 149.5 -103.5s66.5 -108.833 76.5 -175.5h28c-9.33301 68.667 -34 129.5 -74 182.5
s-89.667 91.5 -149 115.5zM703.001 269.996c-16 -8.66699 -32.666 -14.6689 -49.999 -18.002c-4 -1.33301 -8 -2.16602 -12 -2.49902s-8.33301 -0.666016 -13 -0.999023s-9 -0.5 -13 -0.5c-12.667 0 -25.334 1.33301 -38.001 4c-18 3.33301 -34.667 9.33301 -50 18
c-28 16 -50.667 38.167 -68 66.5s-26 59.166 -26 92.499c0 32.667 8.16699 63 24.5 91s38.5 50.167 66.5 66.5s58.333 24.5 91 24.5c24.667 0 48.167 -4.83301 70.5 -14.5s41.666 -22.667 57.999 -39s29.166 -35.666 38.499 -57.999s14 -45.833 14 -70.5
c0 -16.667 -2.16699 -33 -6.5 -49s-10.666 -30.833 -18.999 -44.5s-18.166 -26 -29.499 -37s-24 -20.5 -38 -28.5z" />
    <glyph glyph-name="uniE603" unicode="&#xe603;" 
d="M512 747c-87.333 0 -161.999 -30.832 -223.999 -92.499s-93 -136.5 -93 -224.5c0 -40 11 -87.333 33 -142s48.5 -106.334 79.5 -155.001s62 -94.667 93 -138s57.167 -77.666 78.5 -102.999l33 -39l34.5 40.5c14.333 17 39.666 50.167 75.999 99.5
s68.333 96.666 96 141.999s53 95.833 76 151.5s34.5 103.5 34.5 143.5c0 88 -31 162.833 -93 224.5s-136.667 92.5 -224 92.5zM225.001 430.001c0 79.333 27.998 147 83.998 203s123.667 84 203 84c52 0 100 -12.833 144 -38.5s78.833 -60.5 104.5 -104.5
s38.5 -92 38.5 -144c0 -32 -8 -69.5 -24 -112.5s-34.667 -83.667 -56 -122s-46.666 -78.833 -75.999 -121.5s-53.666 -76.667 -72.999 -102l-58 -73c-37.333 44.667 -73.833 91.667 -109.5 141s-74.167 113.833 -115.5 193.5s-62 145.167 -62 196.5zM511.999 579.001
c-41.333 0 -76.5 -14.5 -105.5 -43.5s-43.5 -64 -43.5 -105s14.5 -76.167 43.5 -105.5s64.167 -44 105.5 -44c26.667 0 51.5 6.66699 74.5 20s41.167 31.5 54.5 54.5s20 47.833 20 74.5c0 41.333 -14.5 76.5 -43.5 105.5s-64.167 43.5 -105.5 43.5zM511.999 311.001
c-21.333 0 -41.1689 5.33398 -59.502 16.001s-32.833 25.167 -43.5 43.5s-16 38.166 -16 59.499c0 16.667 3.16699 32.334 9.5 47.001s14.833 27.334 25.5 38.001s23.334 19.167 38.001 25.5s30 9.5 46 9.5s31.333 -3.16699 46 -9.5s27.334 -14.833 38.001 -25.5
s19.167 -23.334 25.5 -38.001s9.5 -30.334 9.5 -47.001c0 -32.667 -11.667 -60.667 -35 -84s-51.333 -35 -84 -35z" />
    <glyph glyph-name="uniE604" unicode="&#xe604;" 
d="M959 207v185.999h-144c-2 6.66699 -4.16699 13 -6.5 19s-5 12 -8 18s-5.83301 12 -8.5 18l102 102l-132 132l-102 -102c-8.66699 4.66699 -17.667 8.83398 -27 12.501l-28 10.5v144h-186v-144c-18.667 -6 -37 -13.667 -55 -23l-102 102l-132 -132l102 -102
c-9.33301 -18 -17 -36.333 -23 -55h-144v-186h144c6 -18.667 13.667 -37 23 -55l-102 -102l132 -132l102 102c18 -9.33301 36.333 -17 55 -23v-144h186v144c18.667 6 37 13.667 55 23l102 -102l132 132l-102 102c9.33301 18 17 36.333 23 55h144zM785 215.999
c-1.33301 -5.33301 -3.00586 -10.668 -5.00586 -16.001l-8 -18c-2 -5.33301 -4.33301 -10.666 -7 -15.999l-11 -20l96 -96l-88 -88l-96 96l-20 -11c-3.33301 -1.33301 -6.66602 -2.83301 -9.99902 -4.5s-6.66602 -3.16699 -9.99902 -4.5l-10 -4l-10 -4
c-3.33301 -1.33301 -6.66602 -2.33301 -9.99902 -3l-22 -7v-136h-124v136l-22 7c-5.33301 1.33301 -10.666 3 -15.999 5l-18 8c-5.33301 2 -10.666 4.33301 -15.999 7l-20 11l-96 -96l-88 88l96 96l-11 20c-4 8 -7.66699 16.167 -11 24.5s-6.33301 16.833 -9 25.5l-7 22
h-136v124h136l7 22c5.33301 17.333 12 34 20 50l11 20l-96 96l88 88l96 -96l20 11c16.667 8 33.334 14.667 50.001 20l22 7v136h124v-136l22 -7l12.5 -4c4.33301 -1.33301 8.5 -2.83301 12.5 -4.5s8.16699 -3.5 12.5 -5.5l12.5 -6l20 -11l96 96l88 -88l-96 -96l11 -20
c8 -16 14.667 -32.667 20 -50l7 -22h136v-124h-136zM511.994 467.997c-46 0 -85.502 -16.5 -118.502 -49.5s-49.5 -72.5 -49.5 -118.5c0 -30.667 7.5 -58.834 22.5 -84.501s35.333 -46 61 -61s53.834 -22.5 84.501 -22.5s58.834 7.5 84.501 22.5s46 35.333 61 61
s22.5 53.834 22.5 84.501c0 46 -16.5 85.5 -49.5 118.5s-72.5 49.5 -118.5 49.5zM511.992 162.997c-38 0 -70.333 13.333 -97 40s-40 59 -40 97s13.333 70.333 40 97s59 40 97 40s70.333 -13.333 97 -40s40 -59 40 -97c0 -18.667 -3.66699 -36.334 -11 -53.001
s-17.166 -31.167 -29.499 -43.5s-26.833 -22.166 -43.5 -29.499s-34.334 -11 -53.001 -11z" />
    <glyph glyph-name="uniE605" unicode="&#xe605;" 
d="M512 747c-123.333 0 -228.666 -43.667 -315.999 -131s-131 -192.666 -131 -315.999s43.667 -228.666 131 -315.999s192.666 -131 315.999 -131s228.666 43.667 315.999 131s131 192.666 131 315.999s-43.667 228.666 -131 315.999s-192.666 131 -315.999 131zM512 -117
c-75.333 0 -145 18.667 -209 56s-114.667 88 -152 152s-56 133.667 -56 209s18.667 145 56 209s88 114.667 152 152s133.667 56 209 56s145 -18.667 209 -56s114.667 -88 152 -152s56 -133.667 56 -209s-18.667 -145 -56 -209s-88 -114.667 -152 -152s-133.667 -56 -209 -56
zM534 255h-223v-29h223h30v29v313h-30v-313z" />
    <glyph glyph-name="uniE606" unicode="&#xe606;" 
d="M831 318h-51v161c0 74 -26.167 137.167 -78.5 189.5s-115.5 78.5 -189.5 78.5s-137.167 -26.167 -189.5 -78.5s-78.5 -115.5 -78.5 -189.5v-161h-9h-116v-465h786v465h-74zM274 479c0 65.333 23.167 121.333 69.5 168s102.5 70 168.5 70s122.167 -23.333 168.5 -70
s69.5 -102.667 69.5 -168v-161h-476v161zM876 -117h-728v405h87h39h476h81h45v-405z" />
    <glyph glyph-name="uniE607" unicode="&#xe607;" 
d="M831 318h-51.002v1h-30v-1h-476v161c0 65.333 23.167 121.333 69.5 168s102.5 70 168.5 70c56.667 0 106.834 -18 150.501 -54s71.167 -81.333 82.5 -136h31c-12 63.333 -42.667 115.833 -92 157.5s-106.666 62.5 -171.999 62.5c-74 0 -137.167 -26.167 -189.5 -78.5
s-78.5 -115.5 -78.5 -189.5v-161h-9h-116v-465h786v465h-74zM875.998 -117h-728v405h87h39h476h81h45v-405z" />
    <glyph glyph-name="uniE608" unicode="&#xe608;" 
d="M512 747c-123.333 0 -228.666 -43.667 -315.999 -131s-131 -192.666 -131 -315.999s43.667 -228.666 131 -315.999s192.666 -131 315.999 -131s228.666 43.667 315.999 131s131 192.666 131 315.999s-43.667 228.666 -131 315.999s-192.666 131 -315.999 131zM512 -117
c-75.333 0 -145 18.667 -209 56s-114.667 88 -152 152s-56 133.667 -56 209s18.667 145 56 209s88 114.667 152 152s133.667 56 209 56s145 -18.667 209 -56s114.667 -88 152 -152s56 -133.667 56 -209s-18.667 -145 -56 -209s-88 -114.667 -152 -152s-133.667 -56 -209 -56
zM584 236c-6.66699 0 -14.6689 -1.33398 -24.002 -4.00098c-4 -0.666992 -8 -0.833984 -12 -0.500977s-9.66699 5.5 -17 15.5s-16.666 25.667 -27.999 47l-4 8c-23.333 44 -31.333 69.667 -24 77c0.666992 1.33301 2 2.66602 4 3.99902l1 1l8 8
c3.33301 2.66699 6 5.66699 8 9c14.667 19.333 14.667 50.666 0 93.999c-12 36 -26 56.667 -42 62l-20 3c-8 0.666992 -18 -1.16602 -30 -5.49902s-22.667 -11.166 -32 -20.499c-2.66699 -2.66699 -5 -5.16699 -7 -7.5s-3.66699 -5.16602 -5 -8.49902l-6 -8l-4 -10
c-1.33301 -3.33301 -2.66602 -7 -3.99902 -11c-10 -33.333 -9.16699 -70 2.5 -110s30.334 -84.167 56.001 -132.5s51.667 -88.5 78 -120.5s56.166 -53.333 89.499 -64c38.667 -12 71 -5 97 21c10 10 16.667 20.333 20 31c4.66699 16 -4.33301 39 -27 69
c-28.667 36.667 -54.667 54.334 -78 53.001zM667.998 120.999c-2.66699 -7.33301 -7.66699 -15 -15 -23c-12.667 -12.667 -28.334 -19 -47.001 -19c-2.66699 0 -5.5 0.166992 -8.5 0.5s-6 0.833008 -9 1.5s-6.16699 1.66699 -9.5 3c-30 9.33301 -57.167 29 -81.5 59
s-48.666 68 -72.999 114s-42.166 87.667 -53.499 125s-12.666 71 -3.99902 101c4.66699 14.667 11.667 26.334 21 35.001c6.66699 7.33301 14.167 12.333 22.5 15s16.166 4 23.499 4c3.33301 0 6.16602 -0.166992 8.49902 -0.5s4.16602 -0.833008 5.49902 -1.5
c8.66699 -2.66699 17.667 -18.334 27 -47.001c12 -36 13.333 -60.667 4 -74l-7 -7c-1.33301 -1.33301 -3.66602 -3.33301 -6.99902 -6l-3 -3l-3 -3c-8.66699 -8.66699 -11.5 -20.5 -8.5 -35.5s12.5 -37.833 28.5 -68.5l4 -8c10.667 -19.333 19.667 -34.333 27 -45
s14.333 -18.167 21 -22.5s14 -6.5 22 -6.5c3.33301 0 7.66602 0.666992 12.999 2c2 0 3.5 0.166992 4.5 0.5s2.16699 0.5 3.5 0.5l6 2h5c16.667 0 36.334 -14.667 59.001 -44l12.5 -18.5c3.66699 -5.66699 6.16699 -10.167 7.5 -13.5s2.33301 -6.5 3 -9.5s1 -5.16699 1 -6.5
v-1z" />
    <glyph glyph-name="uniE609" unicode="&#xe609;" 
d="M512 -71c8.66699 0 16.167 3.16699 22.5 9.5s9.5 13.833 9.5 22.5s-3.16699 16.167 -9.5 22.5s-13.833 9.5 -22.5 9.5s-16.167 -3.16699 -22.5 -9.5s-9.5 -13.833 -9.5 -22.5s3.16699 -16.167 9.5 -22.5s13.833 -9.5 22.5 -9.5zM823 741
c-4 4 -8.99902 6.00098 -14.999 6.00098h-592c-2.66699 0 -5.33398 -0.5 -8.00098 -1.5s-5 -2.5 -7 -4.5s-3.5 -4.33301 -4.5 -7s-1.5 -5.33398 -1.5 -8.00098v-623v-42v-187c0 -6 2 -11 6 -15s9 -6 15 -6h592c6 0 11 2 15 6s6 9 6 15v187v42v623c0 6 -2 11 -6 15z
M797.001 715.001v-64h-570v64h570zM797.001 -114.999h-570v160h570v-160zM227.001 76.001v543h570v-543h-570z" />
    <glyph glyph-name="uniE60A" unicode="&#xe60a;" 
d="M512 427c-46 0 -85.5 -16.333 -118.5 -49s-49.5 -72.167 -49.5 -118.5s16.5 -85.833 49.5 -118.5s72.5 -49 118.5 -49s85.5 16.333 118.5 49s49.5 72.167 49.5 118.5s-16.5 85.833 -49.5 118.5s-72.5 49 -118.5 49zM512 122c-38 0 -70.5 13.333 -97.5 40
s-40.5 59 -40.5 97s13.5 70.5 40.5 97.5s59.5 40.5 97.5 40.5s70.5 -13.5 97.5 -40.5s40.5 -59.5 40.5 -97.5s-13.5 -70.333 -40.5 -97s-59.5 -40 -97.5 -40zM705 511l-27 130h-332l-27 -130h-49v30v30h-29h-90h-30v-60h-56v-552h894v552h-254zM151 541h90v-30h-90v30z
M929 -11h-834v492h248l27 130h284l27 -130h248v-492z" />
    <glyph glyph-name="uniE60B" unicode="&#xe60b;" 
d="M272 346c6.66699 0 13.332 0.833984 19.999 2.50098s13.167 3.66699 19.5 6s12.166 5.5 17.499 9.5s10.333 8.33301 15 13s8.83398 9.66699 12.501 15s6.83398 11.166 9.50098 17.499s4.66699 12.833 6 19.5s2 13.667 2 21c0 18.667 -4.5 36 -13.5 52
s-21.333 28.5 -37 37.5s-32.834 13.5 -51.501 13.5c-28.667 0 -53 -10 -73 -30s-30 -44.333 -30 -73c0 -18.667 4.66699 -36 14 -52s21.833 -28.667 37.5 -38s32.834 -14 51.501 -14zM271.998 524.001c12.667 0 24.667 -3.33496 36 -10.002s20.166 -15.667 26.499 -27
s9.5 -23.666 9.5 -36.999s-3.16699 -25.666 -9.5 -36.999s-15.166 -20.333 -26.499 -27s-23.333 -10 -36 -10c-10 0 -19.5 2 -28.5 6s-16.667 9.33301 -23 16s-11.5 14.5 -15.5 23.5s-6 18.5 -6 28.5c0 20 7.16699 37.333 21.5 52s31.5 22 51.5 22zM64.998 657.999v-716h894
v716h-894zM928.998 -28.001h-805l288 245l149 -130l368 295v-410zM928.998 419.999l-368 -294l-148 130l-318 -269v641h834v-208z" />
    <glyph glyph-name="uniE60C" unicode="&#xe60c;" 
d="M929 717h-566h-30v-30v-566c-30 40 -69.667 60 -119 60c-41.333 0 -76.5 -14.5 -105.5 -43.5s-43.5 -64.167 -43.5 -105.5s14.5 -76.5 43.5 -105.5s64.167 -43.5 105.5 -43.5s76.5 14.5 105.5 43.5s43.5 64.167 43.5 105.5v655h566v-492c-30 40 -69.667 60 -119 60
c-41.333 0 -76.5 -14.5 -105.5 -43.5s-43.5 -64 -43.5 -105s14.5 -76.167 43.5 -105.5s64.167 -44 105.5 -44s76.5 14.667 105.5 44s43.5 64.333 43.5 105v611h-30zM214 -87c-32.667 0 -60.667 11.667 -84 35s-35 51.333 -35 84s11.667 60.667 35 84s51.333 35 84 35
s60.667 -11.667 84 -35s35 -51.333 35 -84s-11.667 -60.667 -35 -84s-51.333 -35 -84 -35zM810 -13c-32.667 0 -60.666 11.665 -83.999 34.998s-35 51.5 -35 84.5s11.667 61.167 35 84.5s51.333 35 84 35s60.667 -11.667 84 -35s35 -51.666 35 -84.999
c0 -41.333 -17 -73.666 -51 -96.999c-20.667 -14.667 -43.334 -22 -68.001 -22z" />
    <glyph glyph-name="uniE60D" unicode="&#xe60d;" 
d="M512 747c-123.333 0 -228.666 -43.667 -315.999 -131s-131 -192.666 -131 -315.999s43.667 -228.666 131 -315.999s192.666 -131 315.999 -131s228.666 43.667 315.999 131s131 192.666 131 315.999s-43.667 228.666 -131 315.999s-192.666 131 -315.999 131zM512 -117
c-75.333 0 -145 18.666 -209 55.999s-114.667 88 -152 152s-56 133.667 -56 209s18.667 145 56 209s88 114.667 152 152s133.667 56 209 56s145 -18.667 209 -56s114.667 -88 152 -152s56 -133.667 56 -209c0 -107.333 -36 -200.666 -108 -279.999
c-70 -77.333 -156.667 -122 -260 -134c-16.667 -2 -33 -3 -49 -3zM426 90.999l291 209l-291 209v-418zM456 450.999l210 -151l-210 -151v302z" />
    <glyph glyph-name="uniE60E" unicode="&#xe60e;" 
d="M512 167c20 0 39.3311 4 57.998 12s34.667 18.667 48 32s24 29.166 32 47.499s12 37.833 12 58.5v280c0 41.333 -14.667 76.666 -44 105.999s-64.666 44 -105.999 44c-16 0 -31.667 -2.5 -47 -7.5s-29.166 -12.167 -41.499 -21.5s-23.166 -20.166 -32.499 -32.499
s-16.5 -26 -21.5 -41s-7.5 -30.833 -7.5 -47.5v-280c0 -41.333 14.667 -76.666 44 -105.999s64.666 -44 105.999 -44zM391.998 597c0 33.333 11.8311 61.667 35.498 85s51.834 35 84.501 35s60.834 -11.667 84.501 -35s35.5 -51.666 35.5 -84.999v-280
c0 -22 -5.33301 -42.167 -16 -60.5s-25.334 -32.833 -44.001 -43.5s-38.667 -16 -60 -16c-33.333 0 -61.666 11.667 -84.999 35s-35 51.666 -35 84.999v280zM777.996 447.001v-130c0 -73.333 -26 -136 -78 -188s-114.667 -78 -188 -78s-136 26 -188 78s-78 114.667 -78 188
v130h-30v-130c0 -78 26.833 -145.333 80.5 -202s119.5 -87.667 197.5 -93h3v-139h-108v-30h246v30h-108v139h3c78 5.33301 143.833 36.333 197.5 93s80.5 124 80.5 202v130h-30z" />
    <glyph glyph-name="uniE60F" unicode="&#xe60f;" 
d="M950 552c-3.33301 1.33301 -6.49707 1.66797 -9.49707 1.00098s-5.5 -2 -7.5 -4l-261 -222v212c0 2 -0.166992 3.5 -0.5 4.5s-1 2.16699 -2 3.5s-1.83301 2.66602 -2.5 3.99902c-1.33301 1.33301 -3 2.33301 -5 3s-4 1 -6 1h-575
c-4.66699 0 -8.33398 -1.33301 -11.001 -4c-0.666992 -0.666992 -1.33398 -1.5 -2.00098 -2.5s-1.33398 -1.83301 -2.00098 -2.5v-4c-0.666992 -0.666992 -1 -1.66699 -1 -3v-478c0 -4.66699 1.5 -8.5 4.5 -11.5s6.83301 -4.5 11.5 -4.5h575c4 0 7.66699 1.5 11 4.5
s5 6.83301 5 11.5v212l261 -222c5.33301 -4.66699 11 -5.5 17 -2.5s9 7.83301 9 14.5v237v237c0 1.33301 -0.166992 2.83301 -0.5 4.5s-1 3 -2 4s-2 2.16699 -3 3.5s-2.16699 2.33301 -3.5 3zM643.003 73.002h-549v454h549v-454zM930.003 91.002l-245 209l245 209v-418z" />
    <glyph glyph-name="uniE610" unicode="&#xe610;" 
d="M789 151c-30 0 -57.1689 -8 -81.502 -24s-42.5 -37 -54.5 -63l-280 165c2 4.66699 3.66699 9.16699 5 13.5s2.5 9 3.5 14s1.66699 9.83301 2 14.5s0.5 9.66699 0.5 15c0 10 -1 19.833 -3 29.5s-4.66699 18.834 -8 27.501l229 161c30 -36.667 68.667 -55 116 -55
c40.667 0 75.667 14.5 105 43.5s44 64.167 44 105.5s-14.667 76.5 -44 105.5s-64.5 43.5 -105.5 43.5s-76 -14.5 -105 -43.5s-43.5 -64.167 -43.5 -105.5c0 -25.333 5.66699 -49 17 -71l-227 -158c-6.66699 10 -14.5 19 -23.5 27s-18.667 14.833 -29 20.5
s-21.666 10.167 -33.999 13.5s-24.833 5 -37.5 5c-40.667 0 -75.667 -14.5 -105 -43.5s-44 -64.167 -44 -105.5s14.667 -76.5 44 -105.5s64.333 -43.5 105 -43.5c10.667 0 21 1 31 3s19.333 5 28 9s17 8.66699 25 14s15.5 11.5 22.5 18.5s13.167 14.5 18.5 22.5l284 -168
c-1.33301 -5.33301 -2.33301 -10.833 -3 -16.5s-1 -11.5 -1 -17.5c0 -11.333 1.33301 -22.666 4 -33.999s6.33398 -21.833 11.001 -31.5s10.5 -18.834 17.5 -27.501s14.667 -16.334 23 -23.001s17.5 -12.5 27.5 -17.5s20.5 -8.83301 31.5 -11.5s22.5 -4 34.5 -4
c40.667 0 75.667 14.5 105 43.5s44 64.167 44 105.5c0 26.667 -6.66699 51.5 -20 74.5s-31.5 41.167 -54.5 54.5s-47.833 20 -74.5 20zM717.998 719c33.333 0 61.666 -11.833 84.999 -35.5s35 -52.167 35 -85.5s-11.667 -61.833 -35 -85.5s-51.666 -35.5 -84.999 -35.5
s-61.833 11.833 -85.5 35.5s-35.5 52.167 -35.5 85.5s11.833 61.833 35.5 85.5s52.167 35.5 85.5 35.5zM234.998 165c-33.333 0 -61.666 11.834 -84.999 35.501s-35 52.167 -35 85.5s11.667 61.666 35 84.999s51.666 35 84.999 35s61.833 -11.667 85.5 -35
s35.5 -51.666 35.5 -84.999c0 -9.33301 -1 -18.5 -3 -27.5s-5 -17.5 -9 -25.5s-8.83301 -15.5 -14.5 -22.5s-12 -13.333 -19 -19s-14.5 -10.334 -22.5 -14.001s-16.5 -6.66699 -25.5 -9s-18.167 -3.5 -27.5 -3.5zM788.998 -118.999c-33.333 0 -61.834 11.833 -85.501 35.5
s-35.5 52.167 -35.5 85.5c0 22 5.33301 42.167 16 60.5s25.334 33 44.001 44s39 16.5 61 16.5c33.333 0 61.666 -11.833 84.999 -35.5s35 -52.167 35 -85.5s-11.667 -61.833 -35 -85.5s-51.666 -35.5 -84.999 -35.5z" />
    <glyph glyph-name="uniE611" unicode="&#xe611;" 
d="M512 635h-447v-670h4h53h390h390h53h4v670h-447zM883 605l-371 -346l-371 346h742zM883 -5h-742l283 264l-22 21l-305 -285h-2v610h2l415 -387l415 387h2v-610h-2l-305 285l-22 -21z" />
    <glyph glyph-name="uniE612" unicode="&#xe612;" 
d="M867 -116h-710v832h386v31h-416v-894h770v462h-30v-431zM352 202l109 22l436 436l-87 87l-436 -436zM401 294l409 409l44 -43l-409 -409l-55 -11z" />
    <glyph glyph-name="uniE613" unicode="&#xe613;" 
d="M251 360h522v-30h-522v30zM251 196h522v-30h-522v30zM251 32h254v-30h-254v30zM884 511l-235 236h-30h-9h-470v-894h744v618v39v1zM649 705l195 -196h-195v196zM855 -117h-686v834h450v-208v-15v-15h236v-596z" />
    <glyph glyph-name="uniE614" unicode="&#xe614;" 
d="M140 202h417v-30h-417v30zM140 108h268v-30h-268v30zM954 592.5c-3.33301 3.66699 -7.66504 5.50098 -12.998 5.50098h-858h-3l-4 -2c-0.666992 0 -1.5 -0.333008 -2.5 -1s-2.16699 -1.33398 -3.5 -2.00098c-1.33301 -2 -2.5 -4.16699 -3.5 -6.5s-1.5 -4.5 -1.5 -6.5
v-131v-89v-340c0 -4.66699 1.66699 -8.83398 5 -12.501s7.66602 -5.5 12.999 -5.5h858c5.33301 0 9.66602 1.66699 12.999 5c3.33301 4 5 8.33301 5 13v340v89v131c0 4.66699 -1.66699 8.83398 -5 12.501zM929.001 32.001h-834l1 302h834zM930.001 364.001h-834l-1 98h834z
M929.001 492.001h-834v76h834v-76z" />
    <glyph glyph-name="uniE615" unicode="&#xe615;" 
d="M955 590c-4 3.33301 -8.33301 5 -13 5h-859c-5.33301 0 -9.66602 -1.66699 -12.999 -5c-3.33301 -4 -5 -8.33301 -5 -13v-554c0 -5.33301 1.66699 -9.66602 5 -12.999s7.66602 -5 12.999 -5h859c2.66699 0 5 0.5 7 1.5s4 2.16699 6 3.5
c3.33301 3.33301 5 7.66602 5 12.999v554c0 2.66699 -0.5 5 -1.5 7s-2.16699 4 -3.5 6zM930 35h-835v530h835v-530zM542 428h313v-30h-313v30zM542 330h208v-30h-208v30zM281 267c16 -9.33301 33.335 -14 52.002 -14s36 4.66699 52 14c26.667 -10 48.167 -26.667 64.5 -50
s24.833 -49.666 25.5 -78.999h22c0 16 -2.33301 31.333 -7 46s-11 28.167 -19 40.5s-17.5 23.5 -28.5 33.5s-23.167 18.333 -36.5 25c21.333 20 32 45 32 75c0 28.667 -10.333 53.167 -31 73.5s-45.334 30.5 -74.001 30.5s-53.167 -10.167 -73.5 -30.5
s-30.5 -44.833 -30.5 -73.5c0 -30 10.667 -55 32 -75c-27.333 -14 -49.333 -33.833 -66 -59.5s-25.334 -54.167 -26.001 -85.5h23c0 29.333 8.33301 55.666 25 78.999s38 40 64 50zM251.002 358c0 14.667 3.66699 28.167 11 40.5s17.333 22.166 30 29.499
s26.334 11 41.001 11c22.667 0 42 -8 58 -24s24 -35 24 -57c0 -13.333 -2.83301 -25.666 -8.5 -36.999s-13.834 -21 -24.501 -29s-22.667 -13 -36 -15c-4.66699 -0.666992 -9 -1 -13 -1s-8.33301 0.333008 -13 1c-13.333 2 -25.333 7 -36 15c-22 16.667 -33 38.667 -33 66z
" />
    <glyph glyph-name="uniE616" unicode="&#xe616;" 
d="M893 126l9.99902 3c2 2.66699 3.33301 5.66699 4 9l52 411c0.666992 4.66699 -0.333008 8.66699 -3 12c-1.33301 1.33301 -3 2.5 -5 3.5s-4 1.5 -6 1.5h-11h-726l-40 91c-1.33301 2.66699 -3.16602 4.66699 -5.49902 6s-4.83301 2 -7.5 2h-76
c-1.33301 0 -2.33301 -0.333008 -3 -1h-4l-3 -3c-1.33301 -1.33301 -2.33301 -2.83301 -3 -4.5s-1 -3.5 -1 -5.5c0 -4 1.33301 -7.33301 4 -10s6 -4 10 -4h58c2.66699 0 5.16699 -0.833008 7.5 -2.5s4.16602 -3.5 5.49902 -5.5l146 -489h-61h-7c-4.66699 0 -8.5 -2 -11.5 -6
s-3.5 -8.33301 -1.5 -13l31 -71l5 -7c2.66699 -1.33301 5.33398 -2 8.00098 -2h19h613c2 0 3.83301 0.333008 5.5 1s3.16699 1.66699 4.5 3s2.33301 2.83301 3 4.5s1 3.5 1 5.5c0 4 -1.33301 7.33301 -4 10s-6 4 -10 4h-625l-19 43l630 14h16zM327.999 140l-107 398h707
l-46 -383zM308.999 -37c0 5.33301 1.33301 10.168 4 14.501s6.16699 7.66602 10.5 9.99902s8.83301 3.5 13.5 3.5c8 0 14.833 -2.66699 20.5 -8s8.5 -12 8.5 -20c0 -2 -0.166992 -3.83301 -0.5 -5.5s-0.833008 -3.16699 -1.5 -4.5l-2 -4
c-0.666992 -1.33301 -1.5 -2.66602 -2.5 -3.99902s-2.16699 -2.33301 -3.5 -3l-4 -4c-1.33301 -0.666992 -2.83301 -1.33398 -4.5 -2.00098s-3.5 -1 -5.5 -1h-5c-3.33301 0 -6.83301 0.666992 -10.5 2s-6.66699 3.33301 -9 6s-4.33301 5.66699 -6 9s-2.5 7 -2.5 11z
M805.999 -36.998c0 8 2.66699 14.667 8 20s12 8 20 8s14.667 -2.66699 20 -8s8 -12 8 -20c0 -4 -0.666992 -7.66699 -2 -11s-3.33301 -6.33301 -6 -9s-5.66699 -4.66699 -9 -6s-7 -2 -11 -2c-8 0 -14.667 2.66699 -20 8s-8 12 -8 20z" />
    <glyph glyph-name="uniE617" unicode="&#xe617;" 
d="M911 467l-126 195.002h-552l-121 -196l-47 -78l4 -15l2 -6c4.66699 -12 10.5 -22.333 17.5 -31s15.667 -15.5 26 -20.5s21.833 -7.5 34.5 -7.5c6 0 12 0.666992 18 2s11.833 3.16602 17.5 5.49902s10.834 5.5 15.501 9.5c15.333 -11.333 32.666 -17 51.999 -17
c6 0 12 0.666992 18 2s11.833 3.16602 17.5 5.49902s10.834 5.5 15.501 9.5c15.333 -11.333 32.5 -17 51.5 -17s36.167 5.66699 51.5 17c15.333 -11.333 32.666 -17 51.999 -17c9.33301 0 18.333 1.5 27 4.5s16.667 7.16699 24 12.5c7.33301 -5.33301 15.333 -9.5 24 -12.5
s17.667 -4.5 27 -4.5c19.333 0 36.666 5.66699 51.999 17c4.66699 -4 9.83398 -7.16699 15.501 -9.5s11.5 -4.16602 17.5 -5.49902s12 -2 18 -2c9.33301 0 18.5 1.5 27.5 4.5s17.167 7.16699 24.5 12.5c7.33301 -5.33301 15.333 -9.5 24 -12.5s17.667 -4.5 27 -4.5
c6.66699 0 13 0.666992 19 2s11.667 3.16602 17 5.49902s10.666 5.5 15.999 9.5c15.333 -11.333 32.333 -17 51 -17c12.667 0 24.5 2.5 35.5 7.5s20.833 12 29.5 21s15 19.167 19 30.5c0.666992 1.33301 1.33398 3.33301 2.00098 6l4 15zM929 380.002
c0 -2 -0.336914 -3.3291 -1.00391 -3.99609c-4.66699 -12.667 -12.334 -22.834 -23.001 -30.501s-22.667 -11.5 -36 -11.5s-25.333 4 -36 12l-15 11l-15 -11c-2.66699 -2 -5.5 -3.66699 -8.5 -5s-6 -2.5 -9 -3.5s-6.16699 -1.83301 -9.5 -2.5s-6.66602 -1 -9.99902 -1
c-13.333 0 -25.333 4 -36 12l-15 11l-15 -11c-11.333 -8 -23.666 -12 -36.999 -12s-25.333 4 -36 12l-15 11l-15 -11c-5.33301 -4 -11.166 -7 -17.499 -9s-12.833 -3 -19.5 -3c-12.667 0 -24.667 4 -36 12l-15 11l-15 -11c-2.66699 -2 -5.5 -3.66699 -8.5 -5
s-6 -2.5 -9 -3.5s-6.16699 -1.83301 -9.5 -2.5s-6.33301 -1 -9 -1c-6.66699 0 -13.167 1 -19.5 3s-12.166 5 -17.499 9l-15 11l-15 -11c-11.333 -8 -23.5 -12 -36.5 -12s-25.167 4 -36.5 12l-15 11l-15 -11c-4 -2.66699 -7.83301 -4.83398 -11.5 -6.50098
s-7.66699 -3 -12 -4s-8.5 -1.5 -12.5 -1.5c-13.333 0 -25.666 4 -36.999 12l-15 11l-15 -11c-3.33301 -2.66699 -7 -4.83398 -11 -6.50098s-8.16699 -3 -12.5 -4s-8.5 -1.5 -12.5 -1.5c-25.333 0 -43 14 -53 42c-0.666992 1.33301 -1 2.66602 -1 3.99902l-2 5l42 67l112 184
h524l118 -183l42 -68zM786.996 -35.9941h-550v262h-27v-262v-26h27h550h26v26v262h-26v-262z" />
    <glyph glyph-name="uniE618" unicode="&#xe618;" 
d="M893 126l9.99902 3c2 2.66699 3.33301 5.66699 4 9l52 411c0.666992 4.66699 -0.333008 8.66699 -3 12c-1.33301 1.33301 -3 2.5 -5 3.5s-4 1.5 -6 1.5h-11h-726l-40 91c-1.33301 2.66699 -3.16602 4.66699 -5.49902 6s-4.83301 2 -7.5 2h-76
c-1.33301 0 -2.33301 -0.333008 -3 -1h-4l-3 -3c-1.33301 -1.33301 -2.33301 -2.83301 -3 -4.5s-1 -3.5 -1 -5.5c0 -4 1.33301 -7.33301 4 -10s6 -4 10 -4h58c2.66699 0 5.16699 -0.833008 7.5 -2.5s4.16602 -3.5 5.49902 -5.5l146 -489h-61h-7c-4.66699 0 -8.5 -2 -11.5 -6
s-3.5 -8.33301 -1.5 -13l31 -71l5 -7c2.66699 -1.33301 5.33398 -2 8.00098 -2h19h613c2 0 3.83301 0.333008 5.5 1s3.16699 1.66699 4.5 3s2.33301 2.83301 3 4.5s1 3.5 1 5.5c0 4 -1.33301 7.33301 -4 10s-6 4 -10 4h-625l-19 43l630 14h16zM327.999 140l-107 398h707
l-46 -383zM308.999 -37c0 5.33301 1.33301 10.168 4 14.501s6.16699 7.66602 10.5 9.99902s8.83301 3.5 13.5 3.5c8 0 14.833 -2.66699 20.5 -8s8.5 -12 8.5 -20c0 -2 -0.166992 -3.83301 -0.5 -5.5s-0.833008 -3.16699 -1.5 -4.5l-2 -4
c-0.666992 -1.33301 -1.5 -2.66602 -2.5 -3.99902s-2.16699 -2.33301 -3.5 -3l-4 -4c-1.33301 -0.666992 -2.83301 -1.33398 -4.5 -2.00098s-3.5 -1 -5.5 -1h-5c-3.33301 0 -6.83301 0.666992 -10.5 2s-6.66699 3.33301 -9 6s-4.33301 5.66699 -6 9s-2.5 7 -2.5 11z
M805.999 -36.998c0 8 2.66699 14.667 8 20s12 8 20 8s14.667 -2.66699 20 -8s8 -12 8 -20c0 -4 -0.666992 -7.66699 -2 -11s-3.33301 -6.33301 -6 -9s-5.66699 -4.66699 -9 -6s-7 -2 -11 -2c-8 0 -14.667 2.66699 -20 8s-8 12 -8 20z" />
    <glyph glyph-name="uniE619" unicode="&#xe619;" 
d="M678 345l-139 -153l-77 192l-35 7l94 -222l-111 20l-4 -23l107 -20l-7 -40l-108 19l-4 -23l107 -20l-13 -72l28 -5l13 72l105 -19l4 23l-105 20l8 40l105 -19l4 23l-108 20l164 174zM727 483c17.333 30 36.6631 59.001 57.9961 87.001c9.33301 12 12.333 26.167 9 42.5
s-10.166 32.166 -20.499 47.499s-24.833 29.333 -43.5 42s-38.667 22 -60 28c-32 8 -60.333 13 -85 15s-43.167 2.16699 -55.5 0.5s-22.833 -5.66699 -31.5 -12s-14 -11 -16 -14s-4 -7.16699 -6 -12.5c-2.66699 -6.66699 -4.16699 -14.334 -4.5 -23.001
s0.166992 -15.334 1.5 -20.001l11 -44c1.33301 -8 3.16602 -16.5 5.49902 -25.5s4.33301 -17.167 6 -24.5s3.83398 -15.666 6.50098 -24.999c-55.333 -6.66699 -110.666 -26.167 -165.999 -58.5s-99.666 -74.166 -132.999 -125.499c-19.333 -29.333 -34.833 -60 -46.5 -92
s-18.167 -66 -19.5 -102s3.5 -70.167 14.5 -102.5s31.5 -63.333 61.5 -93s68.333 -54.167 115 -73.5c60 -24.667 121.833 -39.167 185.5 -43.5s121 0.5 172 14.5s94.333 37 130 69s56.834 70 63.501 114c30 197.333 -20.667 341 -152 431zM499.997 670.501
c-2 8.33301 -1.33203 17.167 2.00098 26.5c6 15.333 24.667 23 56 23c27.333 0 62.333 -5.66699 105 -17c16.667 -4 32.167 -10.833 46.5 -20.5s26.166 -20 35.499 -31s15.666 -21.5 18.999 -31.5c4.66699 -14 4.33398 -25 -0.999023 -33
c-20.667 -27.333 -40 -56.333 -58 -87l-1 -1h-1h-1c-44 30 -100.667 45 -170 45c-1.33301 0 -2 0.666992 -2 2l-20 80c-1.33301 7.33301 -2.83301 14.5 -4.5 21.5zM851.998 56.002c-4 -26 -14.3301 -49.8281 -30.9971 -71.4951s-37.834 -40.167 -63.501 -55.5
s-55.834 -27.333 -90.501 -36s-72 -13 -112 -13c-74 0.666992 -146 15.334 -216 44.001c-88 35.333 -143 88.333 -165 159c-12 39.333 -13.5 82.166 -4.5 128.499s27.833 91.166 56.5 134.499c21.333 33.333 48.666 62.666 81.999 87.999s66.666 44.666 99.999 57.999
s65.666 21.666 96.999 24.999l13 2c64.667 -0.666992 122.334 -15.667 173.001 -45l20 -14c62.667 -42.667 105.334 -96.834 128.001 -162.501s27 -146.167 13 -241.5z" />
    <glyph glyph-name="uniE61A" unicode="&#xe61a;" 
d="M929 116c0 -41.333 -19.001 -79.667 -57.001 -115s-89 -63.5 -153 -84.5s-133 -31.5 -207 -31.5s-143 10.5 -207 31.5s-115 49.167 -153 84.5s-57 73.666 -57 114.999c-10 8.66699 -19.333 17.334 -28 26.001c-1.33301 -8.66699 -2 -17.334 -2 -26.001
c0 -47.333 20 -91.333 60 -132s94.333 -72.667 163 -96s143.334 -35 224.001 -35c60.667 0 118.5 7 173.5 21s102.5 32.667 142.5 56s71.833 51.333 95.5 84s35.5 66.667 35.5 102c0 8.66699 -0.666992 17.334 -2 26.001l-13 -14c-4.66699 -4 -9.66699 -8 -15 -12z
M928.999 290.999c0 -40.667 -19 -78.835 -57 -114.502s-89 -63.834 -153 -84.501s-133 -31 -207 -31s-143 10.333 -207 31s-115 48.834 -153 84.501s-57 73.834 -57 114.501c-10 8.66699 -19.333 17.667 -28 27c-0.666992 -4 -1.16699 -8.16699 -1.5 -12.5
s-0.5 -8.83301 -0.5 -13.5c0 -36 11.833 -70.167 35.5 -102.5s55.5 -60.333 95.5 -84s87.5 -42.334 142.5 -56.001s112.833 -20.5 173.5 -20.5s118.5 6.83301 173.5 20.5s102.5 32.334 142.5 56.001s71.833 51.667 95.5 84s35.5 66.5 35.5 102.5
c0 8.66699 -0.666992 17.334 -2 26.001c-8.66699 -9.33301 -18 -18.333 -28 -27zM511.999 219.998c80.667 0 155.333 11.833 224 35.5s123 55.667 163 96s60 84.333 60 132s-20 91.667 -60 132s-94.333 72.333 -163 96s-143.334 35.5 -224.001 35.5
c-60.667 0 -118.5 -7 -173.5 -21s-102.5 -32.667 -142.5 -56s-71.833 -51.333 -95.5 -84s-35.5 -66.667 -35.5 -102c0 -48 20 -92.167 60 -132.5s94.333 -72.333 163 -96s143.334 -35.5 224.001 -35.5zM511.998 714.998c74 0 143.167 -10.5 207.5 -31.5
s115.333 -49.333 153 -85s56.5 -74 56.5 -115s-18.833 -79.333 -56.5 -115s-88.667 -64 -153 -85s-133.5 -31.5 -207.5 -31.5s-143.167 10.5 -207.5 31.5s-115.333 49.333 -153 85s-56.5 74 -56.5 115s18.833 79.333 56.5 115s88.667 64 153 85s133.5 31.5 207.5 31.5z" />
    <glyph glyph-name="uniE61B" unicode="&#xe61b;" 
d="M512 747c-123.333 0 -228.666 -43.667 -315.999 -131s-131 -192.666 -131 -315.999s43.667 -228.666 131 -315.999s192.666 -131 315.999 -131s228.666 43.667 315.999 131s131 192.666 131 315.999s-43.667 228.666 -131 315.999s-192.666 131 -315.999 131zM512 -110
c-74 0 -142.5 18.333 -205.5 55s-112.833 86.5 -149.5 149.5s-55 131.5 -55 205.5s18.333 142.5 55 205.5s86.5 112.833 149.5 149.5s131.5 55 205.5 55s142.5 -18.333 205.5 -55s112.833 -86.5 149.5 -149.5s55 -131.5 55 -205.5s-18.333 -142.5 -55 -205.5
s-86.5 -112.833 -149.5 -149.5s-131.5 -55 -205.5 -55zM538 312l-11 2.99707v187l20 -7c21.333 -7.33301 38.333 -22.333 51 -45c0.666992 -1.33301 2.16699 -2.5 4.5 -3.5s4.83301 -1.5 7.5 -1.5s4.83398 0.666992 6.50098 2s3.16699 3 4.5 5
c2.66699 6.66699 3 11.334 1 14.001c-20.667 35.333 -48.334 56.333 -83.001 63l-12 2v36c0 5.33301 -1.33301 9.33301 -4 12c-1.33301 2 -5 3 -11 3c-5.33301 0 -9 -1.33301 -11 -4c-2 -2 -3.33301 -5.66699 -4 -11v-37l-13 -1c-28 -3.33301 -51 -14.333 -69 -33
c-10 -10 -17.667 -21.833 -23 -35.5s-8 -29.167 -8 -46.5c0 -54.667 34 -92 102 -112l11 -3v-202l-19 5c-25.333 7.33301 -46.333 23.333 -63 48c-2.66699 4.66699 -8 7.33398 -16 8.00098c-4 0 -7 -2 -9 -6c-2 -7.33301 -1.66699 -13.666 1 -18.999
c22.667 -35.333 53.667 -56.333 93 -63l13 -2v-35c0 -6 1.33301 -10 4 -12l11 -3c2 0 4 0.333008 6 1s3.66699 1.66699 5 3c2.66699 2 4 5.66699 4 11v35l13 2c12 2.66699 23.5 6.66699 34.5 12s21.167 12.333 30.5 21c23.333 22 35 49.333 35 82c0 62.667 -34 105 -102 127
zM497 321.997l-22 10c-10 4.66699 -18.833 10 -26.5 16s-14 12.333 -19 19s-8.83301 14 -11.5 22s-4 16.333 -4 25c0 25.333 7.66699 46.333 23 63c10 11.333 24 18.333 42 21l18 3v-179zM583 122.997c-4.66699 -4.66699 -10.001 -8.66602 -16.001 -11.999
s-12.667 -6.33301 -20 -9l-20 -7v196l22 -11c13.333 -6.66699 24.5 -14.667 33.5 -24s15.833 -20 20.5 -32s7 -25 7 -39c0 -4.66699 -0.333008 -9.33398 -1 -14.001s-1.66699 -9.16699 -3 -13.5s-3.16602 -8.5 -5.49902 -12.5s-4.83301 -7.83301 -7.5 -11.5
s-6 -7.16699 -10 -10.5z" />
    <glyph glyph-name="uniE61C" unicode="&#xe61c;" 
d="M65 650v-572h894v572h-894zM929 108h-834v512h834v-512zM326 -20h372v-30h-372v30z" />
    <glyph glyph-name="uniE61D" unicode="&#xe61d;" 
d="M666 590c16 18 27.665 39.999 34.998 65.999s10.666 47.667 9.99902 65l-1 26c-2.66699 0 -6.16699 -0.166992 -10.5 -0.5s-13 -1.66602 -26 -3.99902s-25.5 -5.5 -37.5 -9.5s-25.167 -10.333 -39.5 -19s-26.5 -18.667 -36.5 -30
c-7.33301 -8 -13.833 -17.167 -19.5 -27.5s-10.167 -20.333 -13.5 -30s-6 -19.5 -8 -29.5s-3.16699 -19.167 -3.5 -27.5s-0.666016 -15.666 -0.999023 -21.999s-0.166016 -11.5 0.500977 -15.5v-5c2.66699 0 6.33398 0.166992 11.001 0.5s13.5 1.66602 26.5 3.99902
s25.5 5.5 37.5 9.5s25.167 10.333 39.5 19s26.5 18.667 36.5 30zM581.998 663.999c22 24.667 55.001 41.3311 99.001 49.998c-3.33301 -45.333 -15.833 -80.166 -37.5 -104.499s-54.5 -40.833 -98.5 -49.5c1.33301 18.667 4.66602 37.334 9.99902 56.001
s14.333 34.667 27 48zM851.999 421.996c-0.666992 1.33301 -1.6709 3.16699 -3.00391 5.5s-4.5 7 -9.5 14s-10.333 13.5 -16 19.5s-13 13 -22 21s-18.333 14.833 -28 20.5s-21 10.834 -34 15.501s-26.167 7.33398 -39.5 8.00098
c-22.667 1.33301 -44.167 -0.333984 -64.5 -5.00098s-36.5 -10.167 -48.5 -16.5s-24 -12 -36 -17s-22 -6.83301 -30 -5.5c-6 0.666992 -15 4 -27 10s-24.833 12 -38.5 18s-29 10.833 -46 14.5s-36.5 3.5 -58.5 -0.5s-44.333 -12.667 -67 -26
c-48.667 -28 -86.334 -74.5 -113.001 -139.5s-30.334 -133.5 -11.001 -205.5c20.667 -76 52.334 -144.167 95.001 -204.5s80.334 -91.833 113.001 -94.5c24 -1.33301 52.833 4.66699 86.5 18s55.834 19.666 66.501 18.999c14.667 0 37.334 -5.83301 68.001 -17.5
s51.667 -18.167 63 -19.5c4 -1.33301 9.66699 -1.66602 17 -0.999023l22.5 2c7.66699 0.666992 16.334 3.66699 26.001 9s19.334 11.166 29.001 17.499s20 15.833 31 28.5s21.833 27 32.5 43s21.667 36 33 60s22 50.333 32 79c-3.33301 0 -15.333 8.33301 -36 25
c-67.333 56 -91 117.333 -71 184c11.333 40 39.333 80.333 84 121zM667.995 -117.003c-4 0 -8 0.333008 -12 1c-4.66699 0.666992 -10.167 1.83398 -16.5 3.50098s-11.5 3.16699 -15.5 4.5l-20 8l-28 9.5c-6.66699 2.33301 -15.334 4.83301 -26.001 7.5s-20 4 -28 4h-3
c-14.667 0 -36.667 -5.66699 -66 -17l-11 -4c-2 -1.33301 -5.16699 -2.83301 -9.5 -4.5l-10.5 -4c-2.66699 -1 -6.16699 -2 -10.5 -3s-8.16602 -1.83301 -11.499 -2.5s-7 -1.16699 -11 -1.5s-8 -0.5 -12 -0.5h-3h-4c-23.333 1.33301 -54.5 29.833 -93.5 85.5
s-68.167 119.5 -87.5 191.5c-11.333 44.667 -13.166 87.667 -5.49902 129s21.834 78 42.501 110s45 56 73 72c14 8.66699 27.833 15 41.5 19s27.167 6 40.5 6c11.333 0 23 -1.66699 35 -5s21.333 -6.5 28 -9.5l27 -12.5c21.333 -10.667 37 -16.667 47 -18h7
c5.33301 0 10.333 0.333008 15 1s9.66699 2.16699 15 4.5s9.83301 4.16602 13.5 5.49902s8.83398 3.66602 15.501 6.99902l13 6c3.33301 2 8 4.16699 14 6.5s11.333 4.16602 16 5.49902l16 4.5c6 1.66699 12.333 2.83398 19 3.50098s13.667 1 21 1
c4.66699 0 9.66699 -0.333008 15 -1c25.333 -1.33301 47.666 -9 66.999 -23s35.666 -29.667 48.999 -47c-30.667 -30.667 -52.834 -61.667 -66.501 -93s-18.5 -63 -14.5 -95c6.66699 -60 42 -112.667 106 -158c-45.333 -119.333 -97 -184.666 -155 -195.999
c-6 -0.666992 -11.333 -1 -16 -1z" />
    <glyph glyph-name="uniE61E" unicode="&#xe61e;" 
d="M268 67c0 -10.667 3.83008 -19.833 11.4971 -27.5s16.834 -11.5 27.501 -11.5h55v-126c0 -13.333 4.66699 -24.833 14 -34.5s21 -14.5 35 -14.5c6.66699 0 13 1.33301 19 4s11.167 6.16699 15.5 10.5s7.83301 9.5 10.5 15.5s4 12.333 4 19v126h105v-126
c0 -8.66699 2.16699 -16.834 6.5 -24.501s10.333 -13.667 18 -18s15.834 -6.5 24.501 -6.5c14 0 25.667 4.83301 35 14.5s14 21.167 14 34.5v126h59c10.667 0 19.834 3.83301 27.501 11.5s11.5 16.834 11.5 27.501v360h-493v-360zM295.997 398.001l437.001 0.00488281v-331
c0 -2.66699 -1.16699 -5.16699 -3.5 -7.5s-4.83301 -3.5 -7.5 -3.5h-87v-154c0 -2.66699 -0.5 -5.33398 -1.5 -8.00098s-2.5 -4.83398 -4.5 -6.50098s-4.16699 -3.16699 -6.5 -4.5s-5.16602 -2 -8.49902 -2c-5.33301 0 -10 2.16699 -14 6.5s-6 9.16602 -6 14.499v154h-163
v-154c0 -2.66699 -0.5 -5.33398 -1.5 -8.00098s-2.33301 -4.83398 -4 -6.50098s-3.83398 -3.16699 -6.50098 -4.5s-5.33398 -2 -8.00098 -2c-4 0 -7.5 1 -10.5 3s-5.5 4.5 -7.5 7.5s-3 6.5 -3 10.5v154h-83c-2.66699 0 -5.16699 1.16699 -7.5 3.5s-3.5 4.83301 -3.5 7.5v331
zM262.998 473.006h492.997c-2.66699 23.333 -9.5 45.833 -20.5 67.5s-25.5 41 -43.5 58s-38.333 31.167 -61 42.5l61 83c5.33301 8 4.33301 14.833 -3 20.5s-14 4.5 -20 -3.5l-63 -86l-1 -2v-1c-6 2.66699 -12 4.83398 -18 6.50098s-12.167 3.16699 -18.5 4.5
s-12.666 2.5 -18.999 3.5s-12.666 1.66699 -18.999 2s-12.833 0.5 -19.5 0.5c-33.333 0 -66 -6 -98 -18l-1 4l-63 86c-6 8 -12.833 9.16699 -20.5 3.5s-8.5 -12.5 -2.5 -20.5l62 -84c-17.333 -8.66699 -33.166 -18.834 -47.499 -30.501s-27 -24.667 -38 -39
s-19.833 -29.833 -26.5 -46.5s-11 -33.667 -13 -51zM510.995 641.006c50 0 94.3311 -13.167 132.998 -39.5s64.334 -59.833 77.001 -100.5h-423c12.667 40.667 38.834 74.167 78.501 100.5s84.5 39.5 134.5 39.5zM440.493 531.006c3.66699 0 7.33496 0.833008 11.002 2.5
s6.66699 3.66699 9 6s4.16602 5.16602 5.49902 8.49902s2 7 2 11c0 7.33301 -2.66699 13.666 -8 18.999s-11.833 8 -19.5 8s-14.167 -2.66699 -19.5 -8s-8 -11.666 -8 -18.999c0 -4 0.833008 -7.66699 2.5 -11s3.66699 -6.16602 6 -8.49902s5.16602 -4.33301 8.49902 -6
s6.83301 -2.5 10.5 -2.5zM577.994 531.006c5.33301 0 10.001 1.33398 14.001 4.00098s7.33301 6 10 10s4 8.66699 4 14c0 7.33301 -2.66699 13.666 -8 18.999s-11.833 8 -19.5 8s-14.167 -2.66699 -19.5 -8s-8 -11.833 -8 -19.5s2.66699 -14.167 8 -19.5
s11.666 -8 18.999 -8zM191.995 427.007c-5.33301 0 -10.166 -1.33398 -14.499 -4.00098s-7.66602 -6.16699 -9.99902 -10.5s-3.5 -9.16602 -3.5 -14.499v-227c0 -4.66699 1.16699 -9.16699 3.5 -13.5s5.66602 -7.83301 9.99902 -10.5s9.16602 -4 14.499 -4
c8 0 14.667 2.83301 20 8.5s8 12.167 8 19.5v227c0 4 -0.666992 7.83301 -2 11.5s-3.33301 6.66699 -6 9s-5.66699 4.33301 -9 6s-7 2.5 -11 2.5zM831.995 427.006c-5.33301 0 -10.1641 -1.33398 -14.4971 -4.00098s-7.66602 -6.16699 -9.99902 -10.5
s-3.5 -9.16602 -3.5 -14.499v-227c0 -4.66699 1.16699 -9.16699 3.5 -13.5s5.66602 -7.83301 9.99902 -10.5s9.16602 -4 14.499 -4s10.166 1.33301 14.499 4s7.66602 6.16699 9.99902 10.5s3.5 8.83301 3.5 13.5v227c0 8 -2.66699 14.833 -8 20.5s-12 8.5 -20 8.5z" />
    <glyph glyph-name="uniE61F" unicode="&#xe61f;" 
d="M65 324l355 4v330l-355 -52v-282zM95 581l295 43v-267l-295 -3v227zM462 669v-341l497 6v413zM929 364l-437 -5v284l437 69v-348zM65 -6l355 -52v330l-355 4v-282zM95 246l295 -3v-267l-295 43v227zM462 -69l497 -78v413l-497 6v-341zM492 241l437 -5v-348l-437 69v284z
" />
    <glyph glyph-name="uniE620" unicode="&#xe620;" 
d="M959 401h-341l-106 327l-106 -327h-341l276 -202l-105 -327l276 202l276 -202l-105 327zM732 -50l-220 161l-220 -161l84 260l-220 161h272l84 260l84 -260h272l-220 -161z" />
    <glyph glyph-name="uniE621" unicode="&#xe621;" 
d="M873 132c-17.333 12 -31.501 23.9961 -42.501 35.9961s-20.167 24.833 -27.5 38.5s-12.5 32 -15.5 55s-5 46.5 -6 70.5s-1.5 57.333 -1.5 100c0 22.667 -2.16699 43.834 -6.5 63.501s-10.166 37 -17.499 52s-16.333 28.667 -27 41s-22.167 22.833 -34.5 31.5
s-25.833 16.167 -40.5 22.5s-29.334 11.5 -44.001 15.5s-30.334 7 -47.001 9c1.33301 4 2 8.33301 2 13c0 7.33301 -1.5 14.333 -4.5 21s-7 12.5 -12 17.5s-10.833 9 -17.5 12s-13.667 4.5 -21 4.5c-10 0 -19.333 -2.5 -28 -7.5s-15.5 -11.667 -20.5 -20
s-7.5 -17.5 -7.5 -27.5c0 -4 0.666992 -8 2 -12c-23.333 -2.66699 -44.833 -7.16699 -64.5 -13.5s-38.667 -15.666 -57 -27.999s-34 -27 -47 -44s-23.5 -38.167 -31.5 -63.5s-12 -53.666 -12 -84.999c0 -35.333 -0.333008 -63.666 -1 -84.999s-2 -43 -4 -65
s-5 -39.333 -9 -52s-9.5 -25.5 -16.5 -38.5s-15.5 -24 -25.5 -33s-22.333 -18.5 -37 -28.5c-28 -18 -47.667 -41.333 -59 -70s-13.166 -53.834 -5.49902 -75.501s22.167 -32.5 43.5 -32.5h764c21.333 0 35.833 10.833 43.5 32.5s5.83398 46.834 -5.49902 75.501
s-31 52 -59 70zM907.999 -1.00391c-2.66699 -9.33301 -7.33105 -14 -13.998 -14h-764c-6.66699 0 -11.334 4.66699 -14.001 14c-4.66699 14.667 -2.66699 32.667 6 54s23.667 39 45 53c17.333 11.333 32 22.666 44 33.999s22 24.5 30 39.5s14.167 29.5 18.5 43.5
s7.66602 33 9.99902 57s3.83301 46.5 4.5 67.5s1 49.833 1 86.5c0 120 61.667 187.667 185 203l34 4l-8 34c-0.666992 2 -1 3.66699 -1 5c0 6.66699 2.33301 12.334 7 17.001s10.667 7 18 7c4 0 7.83301 -1 11.5 -3s6.66699 -5 9 -9s3.5 -8 3.5 -12c0 -2 -0.333008 -4 -1 -6
l-7 -34l33 -4c63.333 -7.33301 110.833 -28.166 142.5 -62.499s47.5 -81.5 47.5 -141.5c0 -36.667 0.333008 -65.334 1 -86.001s2.16699 -43 4.5 -67s5.66602 -42.833 9.99902 -56.5s10.5 -28 18.5 -43s18 -28.167 30 -39.5s26.667 -22.333 44 -33
c32.667 -22 50.334 -50.667 53.001 -86c0.666992 -8.66699 0 -16 -2 -22zM512.002 -159.004c-10.667 0 -21.166 2 -31.499 6s-19.333 9.5 -27 16.5s-14 15.167 -19 24.5s-8.16699 19.333 -9.5 30h174c-2.66699 -22 -12.334 -40.333 -29.001 -55s-36 -22 -58 -22z" />
    <glyph glyph-name="uniE622" unicode="&#xe622;" 
d="M768 -58h-166v184h-180v-184h-166v262h-26v-262v-26h26h164h184h164h26v26v262h-26v-262zM576 -58h-128v158h128v-158zM815 411v188h-29v-163l-274 244l-447 -398h447h447zM134 309l378 336l300 -267l78 -69h-756z" />
    <glyph glyph-name="uniE623" unicode="&#xe623;" 
d="M510 52c-36.667 0 -66.166 9.5 -88.499 28.5s-33.833 44.833 -34.5 77.5v3h27l1 -3c4 -54 36.333 -81 97 -81c31.333 0 55.333 7.66699 72 23s25 37 25 65c0 23.333 -7.83301 43.5 -23.5 60.5s-40.167 25.5 -73.5 25.5c-13.333 0 -26.333 -2.16699 -39 -6.5
s-22.834 -9.5 -30.501 -15.5s-14.167 -12.333 -19.5 -19l-1 -1h-27l37 172h188v-25h-166l-24 -108c23.333 18.667 52.333 28 87 28c36 0 65 -10 87 -30s33 -46.667 33 -80c0 -36 -11.167 -64 -33.5 -84s-53.5 -30 -93.5 -30zM65.001 658v-164v-30v-522h894v522v30v164h-894z
M929.001 -28h-834v492h834v-492zM929.001 494h-834v134h149v-60h39v60h458v-60h39v60h149v-134z" />
    <glyph glyph-name="uniE624" unicode="&#xe624;" 
d="M65 683h894v-32h-894v32zM65 316h894v-32h-894v32zM65 -51h894v-32h-894v32z" />
    <glyph glyph-name="uniE625" unicode="&#xe625;" 
d="M653 646c-44.667 44 -96.5029 73.8311 -155.503 89.498s-118 15.667 -177 0s-110.5 -45.5 -154.5 -89.5s-73.833 -95.5 -89.5 -154.5s-15.667 -118 0 -177s45.5 -110.833 89.5 -155.5c42.667 -42.667 92.667 -72 150 -88s114.833 -17.167 172.5 -3.5
s108.834 40.834 153.501 81.501l296 -296l21 21l-296 296c24 26.667 43.5 56.334 58.5 89.001s24.5 66 28.5 100s3.33301 68 -2 102s-16.166 67 -32.499 99s-37.166 60.667 -62.499 86zM630.997 180.998c-61.333 -61.333 -135.333 -92 -222 -92s-160.667 30.667 -222 92
s-92 135.333 -92 222s30.667 160.667 92 222c40 40 87 67.167 141 81.5s108 14.333 162 0s101 -41.5 141 -81.5c61.333 -61.333 92 -135.333 92 -222s-30.667 -160.667 -92 -222z" />
    <glyph glyph-name="uniE626" unicode="&#xe626;" 
d="M65 743h894v-30h-894v30zM65 459h894v-30h-894v30zM414 176l-349 -0.00195312v-30h345c0 2.66699 0.166992 5.33398 0.5 8.00098s0.833008 5.33398 1.5 8.00098v6zM65 -113.002l0.000976562 -30h478c-12.667 8.66699 -25.334 18.667 -38.001 30h-440zM916.001 118.998
c0 28 -5.5 54.832 -16.5 80.499s-25.667 47.834 -44 66.501s-40.333 33.5 -66 44.5s-52.5 16.5 -80.5 16.5c-58 0 -107.167 -20.333 -147.5 -61s-60.5 -89.667 -60.5 -147s20.167 -106.333 60.5 -147s89.5 -61 147.5 -61c50.667 0 95.667 17 135 51l93 -93l22 22l-93 93
c33.333 38.667 50 83.667 50 135zM838.001 -1.00293l-4.00098 -4.99902l-5 -4c-8 -8 -16.833 -15 -26.5 -21s-19.5 -11 -29.5 -15s-20.5 -7 -31.5 -9s-21.833 -3 -32.5 -3c-49.333 0 -91.166 17.333 -125.499 52s-51.5 76.334 -51.5 125.001s17.167 90.334 51.5 125.001
s76.166 52 125.499 52c7.33301 0 14.833 -0.5 22.5 -1.5s15.334 -2.5 23.001 -4.5s15 -4.5 22 -7.5s13.833 -6.33301 20.5 -10s13 -7.83398 19 -12.501s12 -10 18 -16c34 -34.667 51 -76.334 51 -125.001c0 -22 -4 -43.333 -12 -64s-19.667 -39.334 -35 -56.001z" />
    <glyph glyph-name="uniE627" unicode="&#xe627;" 
d="M188 52c-21.333 0 -39.332 -7.50098 -53.999 -22.501s-22 -32.833 -22 -53.5c0 -10.667 2 -20.667 6 -30s9.33301 -17.333 16 -24s14.667 -12 24 -16s19.333 -6 30 -6c20.667 0 38.5 7.33301 53.5 22s22.5 32.667 22.5 54c0 8 -1.33301 15.833 -4 23.5
s-6.33398 14.667 -11.001 21s-10.167 11.833 -16.5 16.5s-13.333 8.33398 -21 11.001s-15.5 4 -23.5 4zM188.001 -72.001c-13.333 0 -24.667 4.66602 -34 13.999s-14 20.666 -14 33.999c0 5.33301 0.666992 10.333 2 15s3.5 9 6.5 13s6.5 7.5 10.5 10.5s8.5 5.33301 13.5 7
s10.167 2.5 15.5 2.5c13.333 0 24.666 -4.66699 33.999 -14s14 -20.666 14 -33.999s-4.66699 -24.666 -14 -33.999s-20.666 -14 -33.999 -14zM153 699.998c-12 0 -25.666 -0.333984 -40.999 -1.00098v-28h4c2 0 3.66699 0.166992 5 0.5s3 0.5 5 0.5h4h5h5h4h4h5
c99.333 0 194.166 -19.333 284.499 -58s168 -90.5 233 -155.5s116.833 -142.667 155.5 -233s58 -185.166 58 -284.499v-20c0 -6.66699 -0.333008 -13.667 -1 -21h28c0.666992 15.333 1 29 1 41c0 170 -51 322.333 -153 457c-94 124 -214 211.333 -360 262
c-80 26.667 -162 40 -246 40zM126.001 368.997l-13.999 -0.000976562v-28h14c77.333 0 148.833 -19 214.5 -57s117.5 -89.833 155.5 -155.5s57 -137.167 57 -214.5v-14h28v14c0 114.667 -38 215 -114 301c-73.333 82.667 -164.333 132.334 -273 149.001
c-22.667 3.33301 -45.334 5 -68.001 5z" />
    <glyph glyph-name="uniE628" unicode="&#xe628;" 
d="M565 -25c4 0 7.49707 1.50391 10.4971 4.50391s4.5 6.5 4.5 10.5v282l117 -117l21 22l-132 132l-21 21l-22 -21l-131 -132l21 -22l117 117v-252c-0.666992 -4.66699 -2 -8.33398 -4 -11.001c-2 -1.33301 -3.83301 -2.33301 -5.5 -3s-3.5 -1 -5.5 -1h-284h-8
c-59.333 2 -106.666 26.667 -141.999 74c-26 34 -39 72 -39 114c0 52 18.333 96.5 55 133.5s81 55.5 133 55.5c4.66699 0 9.16699 -0.166992 13.5 -0.5s9.16602 -0.833008 14.499 -1.5l33 -5l4 34c2 20.667 7 40.667 15 60s18.5 36.5 31.5 51.5s27.667 28.167 44 39.5
s34.5 20 54.5 26s40.667 9 62 9c52.667 0 98.667 -17.667 138 -53s62 -79 68 -131l4 -31l35 2h3h4c52 0 96.333 -18.5 133 -55.5s55 -81.5 55 -133.5c0 -50.667 -17.5 -94.167 -52.5 -130.5s-77.833 -55.5 -128.5 -57.5h-11h-45v-30h54h3
c58.667 2.66699 108.334 25 149.001 67s61 92.333 61 151c0 40 -9.83301 76.667 -29.5 110s-46.167 59.833 -79.5 79.5s-69.666 29.5 -108.999 29.5h-4c-2 0 -4 -0.333008 -6 -1h-6v3c-4.66699 39.333 -18 75.166 -40 107.499s-50.333 57.666 -85 75.999
s-71.667 27.5 -111 27.5c-30 0 -58.833 -5.5 -86.5 -16.5s-52 -25.833 -73 -44.5s-38.333 -41.167 -52 -67.5s-22.167 -54.5 -25.5 -84.5v-3h-3c-11.333 2 -22 3 -32 3c-60 0 -111.333 -21.333 -154 -64s-64 -94.334 -64 -155.001c0 -58.667 20.333 -109 61 -151
s90.334 -64.333 149.001 -67h3h305h15z" />
    <glyph glyph-name="uniE629" unicode="&#xe629;" 
d="M839 402l-0.00292969 -31.002c36.667 -14 66.334 -37.167 89.001 -69.5s34 -68.166 34 -107.499c0 -33.333 -8 -64.166 -24 -92.499s-37.833 -51 -65.5 -68s-58.167 -26.167 -91.5 -27.5l-11 -1h-519l-8 1c-50.667 2 -93.5 21.167 -128.5 57.5s-52.5 79.833 -52.5 130.5
c0 52 18.333 96.5 55 133.5s81 55.5 133 55.5c8 0 17.333 -1 28 -3l33 -4v0v2c0 2 0.166992 4.16699 0.5 6.5s0.5 4.5 0.5 6.5v6v2c0 54 19 100 57 138s84 57 138 57s100 -19 138 -57s57 -84 57 -138v-229h1v-12l-102 102l-22 -21l117 -117l21 -21l22 21l116 117l-21 21
l-102 -102v12v229c0 67.333 -25 123.333 -75 168c-43.333 38 -93.333 57 -150 57c-60 0 -111.833 -20.667 -155.5 -62s-66.834 -92 -69.501 -152c-2 0 -3.83301 0.166992 -5.5 0.5s-3.16699 0.5 -4.5 0.5s-2.83301 0.166992 -4.5 0.5s-3.16699 0.5 -4.5 0.5h-4h-5h-4
c-65.333 0 -120 -24.667 -164 -74c-36 -41.333 -54 -89.333 -54 -144c0 -58.667 20.333 -109.167 61 -151.5s90.334 -64.5 149.001 -66.5h3h534h3c58.667 2 108.334 24.167 149.001 66.5s61 92.833 61 151.5c0 47.333 -14.167 90.333 -42.5 129s-65.166 65 -110.499 79z" />
    <glyph glyph-name="uniE62A" unicode="&#xe62a;" 
d="M866 559h-707.998c-4.66699 0 -8.5 -1.5 -11.5 -4.5s-4.5 -6.83301 -4.5 -11.5l47 -626c0 -2.66699 0.666992 -5.5 2 -8.5s3.16602 -5.5 5.49902 -7.5s5.16602 -3 8.49902 -3h614c4.66699 0 8.5 2 11.5 6s4.5 8.33301 4.5 13l47 625c0 4 -1.5 7.83301 -4.5 11.5
s-6.83301 5.5 -11.5 5.5zM807.002 -73h-590l-45 603h681zM498.002 414h28v-371h-28v371zM326.002 414h29v-371h-29v371zM669.002 414h29v-371h-29v371zM876.002 659h-207v43h-314v-43h-207v-29h728v29z" />
    <glyph glyph-name="uniE62B" unicode="&#xe62b;" 
d="M927 279v-327h-830v327h-30v-327v-29h30h830h30v29v327h-30zM502 621v-485h29v485l174 -174l21 20l-189 189l-21 21l-21 -21l-188 -189l21 -20z" />
    <glyph glyph-name="uniE62C" unicode="&#xe62c;" 
d="M930 279v-333h-835v333h-30v-333v-30h30h835h30v30v333h-30zM512 135l21 21l190 190l-21 21l-175 -175v492h-30v-492l-175 175l-21 -21l190 -190z" />
    <glyph glyph-name="uniE62D" unicode="&#xe62d;" 
d="M645 512h-522l183 182l-22 22l-197 -197l-22 -22l22 -22l197 -197l22 22l-181 181h520c78 0 144.833 -27.667 200.5 -83s83.5 -122 83.5 -200c0 -80 -28.667 -147.667 -86 -203c-55.333 -54 -121.333 -81 -198 -81h-172c-4 0 -7.66699 -1.33301 -11 -4
c-1.33301 -1.33301 -2.33301 -3 -3 -5s-1 -4 -1 -6s0.333008 -3.83301 1 -5.5s1.66699 -3.5 3 -5.5c3.33301 -2.66699 7 -4 11 -4h172c86.667 0 160.667 30.667 222 92s92 135.333 92 222c0 24 -2.66699 47.833 -8 71.5s-13.333 45.834 -24 66.501s-23 40 -37 58
s-30.167 34.167 -48.5 48.5s-37.833 26.666 -58.5 36.999s-42.667 18.333 -66 24s-47.333 8.5 -72 8.5z" />
    <glyph glyph-name="uniE62E" unicode="&#xe62e;" 
d="M379 512l522.001 0.000976562l-183 182l22 22l197 -197l22 -22l-22 -22l-197 -197l-22 22l181 181h-520c-30.667 0 -60.5 -4.66699 -89.5 -14s-55 -22.833 -78 -40.5s-43.333 -38.167 -61 -61.5s-31.334 -49.333 -41.001 -78s-14.5 -58.334 -14.5 -89.001
c0 -78 27.833 -144.833 83.5 -200.5s122.5 -83.5 200.5 -83.5h172c4 0 7.5 -1.33301 10.5 -4s4.5 -6.16699 4.5 -10.5s-1.5 -8 -4.5 -11s-6.5 -4.5 -10.5 -4.5h-172c-86.667 0 -160.667 30.667 -222 92s-92 135.333 -92 222c0 24 2.66699 47.833 8 71.5
s13.333 45.834 24 66.501s23 40 37 58s30.167 34.167 48.5 48.5s37.833 26.666 58.5 36.999s42.667 18.333 66 24s47.333 8.5 72 8.5z" />
    <glyph glyph-name="uniE62F" unicode="&#xe62f;" 
d="M506 747c-30.667 -0.666992 -60.666 -4.16602 -89.999 -10.499s-57.166 -15.333 -83.499 -27s-51.5 -25.834 -75.5 -42.501s-45.833 -35.167 -65.5 -55.5s-37.5 -42.666 -53.5 -66.999s-29.5 -49.833 -40.5 -76.5s-19.333 -54.667 -25 -84s-8.16699 -59.333 -7.5 -90
c0.666992 -60.667 13.167 -118.5 37.5 -173.5s56.833 -102.167 97.5 -141.5s88.667 -70.333 144 -93s113.333 -33.667 174 -33s118.5 13.167 173.5 37.5s102.167 56.833 141.5 97.5s70.333 88.667 93 144s33.667 113.333 33 174c-0.666992 40.667 -6.66699 80.167 -18 118.5
s-26.833 73.833 -46.5 106.5s-43.334 62.5 -71.001 89.5s-58 49.833 -91 68.5s-68.833 33.167 -107.5 43.5s-78.334 15.166 -119.001 14.499zM518.001 -117.499c-75.333 -1 -145.333 16.667 -210 53s-116.167 86.333 -154.5 150s-57.833 133.167 -58.5 208.5
c-0.666992 32.667 2.5 64.667 9.5 96s17.167 60.833 30.5 88.5s29.333 53.667 48 78s40 46.166 64 65.499s49.5 36 76.5 50s56.167 24.833 87.5 32.5s63 11.834 95 12.501c75.333 1.33301 145.333 -16.167 210 -52.5s116.167 -86.333 154.5 -150s58 -133.167 59 -208.5
s-16.667 -145.333 -53 -210s-86.333 -116.167 -150 -154.5s-133.167 -58 -208.5 -59zM619.001 512.001c-26 22.667 -61.998 33.998 -107.998 33.998c-43.333 0 -78.333 -13.667 -105 -41c-8 -8 -14.833 -17.167 -20.5 -27.5s-10 -21.333 -13 -33s-4.83301 -24.5 -5.5 -38.5
h24c0.666992 16.667 3.66699 32 9 46s12.666 26.333 21.999 37c22 25.333 51.333 38 88 38c9.33301 0 18 -0.5 26 -1.5s15.667 -2.83301 23 -5.5s14.333 -5.66699 21 -9s12.667 -7.66602 18 -12.999c22 -19.333 33 -43.666 33 -72.999c0 -12 -3 -24.5 -9 -37.5
s-15 -26.167 -27 -39.5l-65 -63c-6 -6.66699 -11.333 -13.667 -16 -21s-8.33398 -15 -11.001 -23c-5.33301 -14.667 -8.33301 -38.667 -9 -72h22c0 8.66699 0.166992 16.5 0.5 23.5s0.833008 12.833 1.5 17.5c2 13.333 6.66699 26.333 14 39c6 8.66699 33 36.667 81 84
c29.333 29.333 44 59 44 89c0 38 -12.667 68 -38 90zM503.003 109.999c-1.33301 0 -2.83203 -0.166992 -4.49902 -0.5s-3.16699 -0.833008 -4.5 -1.5s-2.83301 -1.33398 -4.5 -2.00098s-3 -1.5 -4 -2.5s-2.16699 -2 -3.5 -3s-2.33301 -2.16699 -3 -3.5l-2 -4l-2 -4
c-0.666992 -1.33301 -1.16699 -2.83301 -1.5 -4.5s-0.5 -3.16699 -0.5 -4.5c0 -8.66699 3 -15.834 9 -21.501s13 -8.5 21 -8.5s15 2.83301 21 8.5s9 12.834 9 21.501c0 5.33301 -1.33301 10.333 -4 15s-6.33398 8.33398 -11.001 11.001s-9.66699 4 -15 4z" />
    <glyph glyph-name="uniE630" unicode="&#xe630;" 
d="M512 -147c123.333 0 228.666 43.667 315.999 131s131 192.666 131 315.999s-43.667 228.666 -131 315.999s-192.666 131 -315.999 131s-228.666 -43.667 -315.999 -131s-131 -192.666 -131 -315.999s43.667 -228.666 131 -315.999s192.666 -131 315.999 -131zM512 717
c75.333 0 145 -18.667 209 -56s114.667 -88 152 -152s56 -133.667 56 -209s-18.667 -145 -56 -209s-88 -114.667 -152 -152s-133.667 -56 -209 -56s-145 18.667 -209 56s-114.667 88 -152 152s-56 133.667 -56 209s18.667 145 56 209s88 114.667 152 152s133.667 56 209 56z
M497 542h30v-343h-30v343zM482 110c0 8 3.00195 15.002 9.00195 21.002s13 9 21 9s15 -3 21 -9s9 -13 9 -21c0 -4 -0.833008 -7.83301 -2.5 -11.5s-3.83398 -6.83398 -6.50098 -9.50098s-5.83398 -4.83398 -9.50098 -6.50098s-7.5 -2.5 -11.5 -2.5c-8 0 -15 3 -21 9
s-9 13 -9 21z" />
    <glyph glyph-name="uniE631" unicode="&#xe631;" 
d="M512 747c-123.333 0 -228.666 -43.667 -315.999 -131s-131 -192.666 -131 -315.999s43.667 -228.666 131 -315.999s192.666 -131 315.999 -131s228.666 43.667 315.999 131s131 192.666 131 315.999s-43.667 228.666 -131 315.999s-192.666 131 -315.999 131zM512 -117
c-75.333 0 -145 18.667 -209 56s-114.667 88 -152 152s-56 133.667 -56 209s18.667 145 56 209s88 114.667 152 152s133.667 56 209 56s145 -18.667 209 -56s114.667 -88 152 -152s56 -133.667 56 -209s-18.667 -145 -56 -209s-88 -114.667 -152 -152s-133.667 -56 -209 -56
zM683 492l-171 -172l-171 172l-21 -21l172 -171l-172 -171l21 -21l171 172l171 -172l21 21l-172 171l172 171z" />
    <glyph glyph-name="uniE632" unicode="&#xe632;" 
d="M512 747c-123.333 0 -228.666 -43.667 -315.999 -131s-131 -192.666 -131 -315.999s43.667 -228.666 131 -315.999s192.666 -131 315.999 -131s228.666 43.667 315.999 131s131 192.666 131 315.999s-43.667 228.666 -131 315.999s-192.666 131 -315.999 131zM512 -117
c-75.333 0 -145 18.666 -209 55.999s-114.667 88 -152 152s-56 133.667 -56 209s18.667 145 56 209s88 114.667 152 152s133.667 56 209 56s145 -18.667 209 -56s114.667 -88 152 -152s56 -133.667 56 -209c0 -107.333 -36 -200.666 -108 -279.999
c-70 -77.333 -156.667 -122 -260 -134c-16.667 -2 -33 -3 -49 -3zM497 400.999h30v-343h-30v343zM482 489.999c0 5.33301 1.33301 10.333 4 15s6.33398 8.33398 11.001 11.001s9.66699 4 15 4c8 0 15 -3 21 -9s9 -13 9 -21c0 -5.33301 -1.33301 -10.333 -4 -15
s-6.33398 -8.33398 -11.001 -11.001s-9.66699 -4 -15 -4c-8 0 -15 3 -21 9s-9 13 -9 21z" />
    <glyph glyph-name="uniE633" unicode="&#xe633;" 
d="M512 747c-123.333 0 -228.666 -43.667 -315.999 -131s-131 -192.666 -131 -315.999s43.667 -228.666 131 -315.999s192.666 -131 315.999 -131s228.666 43.667 315.999 131s131 192.666 131 315.999s-43.667 228.666 -131 315.999s-192.666 131 -315.999 131zM512 -117
c-75.333 0 -145 18.666 -209 55.999s-114.667 88 -152 152s-56 133.667 -56 209s18.667 145 56 209s88 114.667 152 152s133.667 56 209 56s145 -18.667 209 -56s114.667 -88 152 -152s56 -133.667 56 -209c0 -107.333 -36 -200.666 -108 -279.999
c-70 -77.333 -156.667 -122 -260 -134c-16.667 -2 -33 -3 -49 -3zM468 159.999l-174 174l-21 -21l174 -174l21 -21l21 21l292 292l-22 21z" />
    <glyph glyph-name="uniE634" unicode="&#xe634;" 
d="M512 747c-123.333 0 -228.666 -43.667 -315.999 -131s-131 -192.666 -131 -315.999s43.667 -228.666 131 -315.999s192.666 -131 315.999 -131s228.666 43.667 315.999 131s131 192.666 131 315.999s-43.667 228.666 -131 315.999s-192.666 131 -315.999 131zM512 -117
c-75.333 0 -145 18.666 -209 55.999s-114.667 88 -152 152s-56 133.667 -56 209s18.667 145 56 209s88 114.667 152 152s133.667 56 209 56s145 -18.667 209 -56s114.667 -88 152 -152s56 -133.667 56 -209c0 -107.333 -36 -200.666 -108 -279.999
c-70 -77.333 -156.667 -122 -260 -134c-16.667 -2 -33 -3 -49 -3zM303 314.999h418v-30h-418v30z" />
    <glyph glyph-name="uniE635" unicode="&#xe635;" 
d="M512 747c-123.333 0 -228.666 -43.667 -315.999 -131s-131 -192.666 -131 -315.999s43.667 -228.666 131 -315.999s192.666 -131 315.999 -131s228.666 43.667 315.999 131s131 192.666 131 315.999s-43.667 228.666 -131 315.999s-192.666 131 -315.999 131zM512 -117
c-75.333 0 -145 18.667 -209 56s-114.667 88 -152 152s-56 133.667 -56 209s18.667 145 56 209s88 114.667 152 152s133.667 56 209 56s145 -18.667 209 -56s114.667 -88 152 -152s56 -133.667 56 -209s-18.667 -145 -56 -209s-88 -114.667 -152 -152s-133.667 -56 -209 -56
zM527 509h-30v-194h-194v-30h194v-194h30v194h194v30h-194v194z" />
    <glyph glyph-name="uniE636" unicode="&#xe636;" 
d="M512 747c-123.333 0 -228.666 -43.667 -315.999 -131s-131 -192.666 -131 -315.999s43.667 -228.666 131 -315.999s192.666 -131 315.999 -131s228.666 43.667 315.999 131s131 192.666 131 315.999s-43.667 228.666 -131 315.999s-192.666 131 -315.999 131zM512 -117
c-75.333 0 -145 18.667 -209 56s-114.667 88 -152 152s-56 133.667 -56 209s18.667 145 56 209s88 114.667 152 152s133.667 56 209 56s145 -18.667 209 -56s114.667 -88 152 -152s56 -133.667 56 -209s-18.667 -145 -56 -209s-88 -114.667 -152 -152s-133.667 -56 -209 -56
zM621 536l-235 -236l235 -236l17 16l-219 220l219 220z" />
    <glyph glyph-name="uniE637" unicode="&#xe637;" 
d="M65 300c0 -123.333 43.667 -228.666 131 -315.999s192.666 -131 315.999 -131s228.666 43.667 315.999 131s131 192.666 131 315.999s-43.667 228.666 -131 315.999s-192.666 131 -315.999 131s-228.666 -43.667 -315.999 -131s-131 -192.666 -131 -315.999zM95 300
c0 75.333 18.667 145 56 209s88 114.667 152 152s133.667 56 209 56s145 -18.667 209 -56s114.667 -88 152 -152s56 -133.667 56 -209s-18.667 -145 -56 -209s-88 -114.667 -152 -152s-133.667 -56 -209 -56s-145 18.667 -209 56s-114.667 88 -152 152s-56 133.667 -56 209z
M403 536l235 -236l-235 -236l-17 16l219 220l-219 220z" />
    <glyph glyph-name="uniE638" unicode="&#xe638;" 
d="M512 747c-48.667 0 -95.6689 -7.49707 -141.002 -22.4971s-86.333 -36.333 -123 -64s-68.834 -59.834 -96.501 -96.501s-49 -77.667 -64 -123s-22.5 -92.333 -22.5 -141s7.5 -95.667 22.5 -141s36.333 -86.333 64 -123s59.834 -68.834 96.501 -96.501s77.667 -49 123 -64
s92.333 -22.5 141 -22.5c60.667 0 118.667 11.833 174 35.5s102.833 55.5 142.5 95.5s71.334 87.5 95.001 142.5s35.5 112.833 35.5 173.5c0 123.333 -43.667 228.666 -131 315.999s-192.666 131 -315.999 131zM511.998 -116.997c-75.333 0 -144.999 18.666 -208.999 55.999
s-114.667 88 -152 152s-56 133.667 -56 209s18.667 145 56 209s88 114.667 152 152s133.667 56 209 56c32.667 0 64.5 -3.66699 95.5 -11s60.167 -17.833 87.5 -31.5s53.166 -30 77.499 -49s46 -40.667 65 -65s35.333 -50.166 49 -77.499s24.167 -56.5 31.5 -87.5
s11 -62.833 11 -95.5c0 -75.333 -18.667 -145 -56 -209s-88 -114.667 -152 -152s-133.667 -56 -209 -56zM275.999 213.002l16 -17l220 219l220 -219l16 17l-236 235z" />
    <glyph glyph-name="uniE639" unicode="&#xe639;" 
d="M959 300c0 40.667 -5.33105 80.335 -15.998 119.002s-25.667 74.334 -45 107.001s-42.666 62.667 -69.999 90s-57.333 50.666 -90 69.999s-68.334 34.333 -107.001 45s-78.334 16 -119.001 16c-60.667 0 -118.5 -11.833 -173.5 -35.5s-102.5 -55.5 -142.5 -95.5
s-71.833 -87.5 -95.5 -142.5s-35.5 -112.833 -35.5 -173.5s11.833 -118.667 35.5 -174s55.5 -102.833 95.5 -142.5s87.5 -71.334 142.5 -95.001s112.833 -35.5 173.5 -35.5c123.333 0 228.666 43.667 315.999 131s131 192.666 131 315.999zM929.002 300.001
c0 -75.333 -18.667 -145 -56 -209s-88 -114.667 -152 -152s-133.667 -56 -209 -56s-145 18.667 -209 56s-114.667 88 -152 152s-56 133.667 -56 209s18.667 145 56 209s88 114.667 152 152s133.667 56 209 56s145 -18.667 209 -56s114.667 -88 152 -152s56 -133.667 56 -209
zM276.002 387.001l16 17l220 -219l220 219l16 -17l-236 -235z" />
    <glyph glyph-name="uniE63A" unicode="&#xe63a;" 
d="M512 747c-40.667 0 -80.332 -5.33105 -118.999 -15.998s-74.334 -25.667 -107.001 -45s-62.667 -42.666 -90 -69.999s-50.666 -57.333 -69.999 -90s-34.333 -68.334 -45 -107.001s-16 -78.334 -16 -119.001c0 -48.667 7.5 -95.667 22.5 -141s36.333 -86.333 64 -123
s59.834 -68.834 96.501 -96.501s77.667 -49 123 -64s92.333 -22.5 141 -22.5c123.333 0 228.666 43.667 315.999 131s131 192.666 131 315.999c0 40.667 -5.33301 80.334 -16 119.001s-25.667 74.334 -45 107.001s-42.666 62.667 -69.999 90s-57.333 50.666 -90 69.999
s-68.334 34.333 -107.001 45s-78.334 16 -119.001 16zM512.002 -116.998c-75.333 0 -145 18.667 -209 56s-114.667 88 -152 152s-56 133.667 -56 209s18.667 145 56 209s88 114.667 152 152s133.667 56 209 56c38 0 75 -5 111 -15s69.167 -24 99.5 -42
s58.333 -39.833 84 -65.5s47.5 -53.667 65.5 -84s32 -63.5 42 -99.5s15 -73 15 -111c0 -75.333 -18.667 -145 -56 -209s-88 -114.667 -152 -152s-133.667 -56 -209 -56zM318.002 456.002h388v-29h-388v29zM318.002 315.002h388v-30h-388v30zM318.002 173.002h388v-29h-388
v29z" />
    <glyph glyph-name="uniE63B" unicode="&#xe63b;" 
d="M514 331l87 -87l22 22l295 295l1 -237h25l-1 284h-284v-24l238 -1l-296 -295l-65 65l-22 22l-22 -22l-224 -193l22 -22zM96 670h-31v-709v-31h31h863v31h-863v709z" />
    <glyph glyph-name="uniE63C" unicode="&#xe63c;" 
d="M448 223l-139 139l-21 -21l139 -139l21 -20l20 20l268 268l-21 20zM938 648c-53.333 -2 -104.832 0.333984 -154.499 7.00098s-92.167 16 -127.5 28s-63.333 22.667 -84 32s-38.334 18.666 -53.001 27.999l-7 4c-0.666992 -0.666992 -1.83398 -1.5 -3.50098 -2.5
s-2.83398 -1.5 -3.50098 -1.5c-11.333 -7.33301 -24 -14.5 -38 -21.5s-34.5 -15.5 -61.5 -25.5s-55.167 -18.667 -84.5 -26s-65 -13.333 -107 -18s-84.667 -6 -128 -4c-0.666992 -5.33301 -1.33398 -12.333 -2.00098 -21s-1 -26.667 -1 -54s1.16699 -55 3.5 -83
s7.33301 -61.833 15 -101.5s17.5 -77.834 29.5 -114.501s29 -75.834 51 -117.501s47.333 -80 76 -115s64.5 -69.167 107.5 -102.5s90.5 -61.333 142.5 -84c0.666992 -0.666992 1.33398 -1.16699 2.00098 -1.5s1.33398 -0.5 2.00098 -0.5s1.33398 0.166992 2.00098 0.5
s1.33398 0.833008 2.00098 1.5c52 22.667 99.5 50.667 142.5 84s78.833 67.5 107.5 102.5s54 73.333 76 115s39 80.834 51 117.501s21.833 74.834 29.5 114.501s12.667 73.5 15 101.5s3.5 55.667 3.5 83s-0.333008 45.5 -1 54.5s-1.33398 15.833 -2.00098 20.5z
M512.001 -114.999c-39.333 18 -75.8252 38.667 -109.492 62s-62.834 48 -87.501 74s-47.334 53.167 -68.001 81.5s-37.834 57.5 -51.501 87.5s-25.834 59.333 -36.501 88s-18.834 57.667 -24.501 87s-10.5 56 -14.5 80s-6.5 47.833 -7.5 71.5s-1.5 43.167 -1.5 58.5
s0.333008 29.666 1 42.999h7c62.667 0 122.834 6.16699 180.501 18.5s101.5 24.666 131.5 36.999s57 25.5 81 39.5c24 -14 51 -27.167 81 -39.5s73.833 -24.666 131.5 -36.999s117.834 -18.5 180.501 -18.5h7c0.666992 -13.333 1 -27.666 1 -42.999s-0.5 -34.833 -1.5 -58.5
s-3.5 -47.5 -7.5 -71.5s-8.83301 -50.667 -14.5 -80s-13.834 -58.333 -24.501 -87s-22.834 -58 -36.501 -88s-30.834 -59.167 -51.501 -87.5s-43.334 -55.5 -68.001 -81.5s-53.834 -50.667 -87.501 -74s-70.167 -44 -109.5 -62z" />
    <glyph glyph-name="uniE63D" unicode="&#xe63d;" 
d="M664 472l274.001 0.998047v13h1h-1v2l1 259h-24l-1 -215c-12.667 21.333 -27.334 41.5 -44.001 60.5s-34.5 36.5 -53.5 52.5s-39.5 30.333 -61.5 43s-45 23.334 -69 32.001s-49 15.334 -75 20.001s-52.333 7 -79 7c-60.667 0 -118.5 -11.833 -173.5 -35.5
s-102.5 -55.5 -142.5 -95.5s-71.833 -87.5 -95.5 -142.5s-35.5 -112.833 -35.5 -173.5s11.833 -118.5 35.5 -173.5s55.5 -102.5 95.5 -142.5s87.5 -71.833 142.5 -95.5s112.833 -35.5 173.5 -35.5c89.333 0 170.5 24 243.5 72s127.5 111 163.5 189h-34
c-22.667 -46 -52.667 -86.333 -90 -121s-80.5 -61.667 -129.5 -81s-100.167 -29 -153.5 -29c-75.333 0 -145 18.667 -209 56s-114.667 88 -152 152s-56 133.667 -56 209s18.667 145 56 209s88 114.667 152 152s133.667 56 209 56c78.667 0 150.667 -20 216 -60
s116 -93.333 152 -160l-236 -1v-24z" />
    <glyph glyph-name="uniE63E" unicode="&#xe63e;" 
d="M512 682c-80.667 0 -155.333 -16.667 -224 -50s-123 -78.5 -163 -135.5s-60 -119.5 -60 -187.5c0 -50.667 11.5 -98.667 34.5 -144s55.167 -85 96.5 -119l-24 -128l107 73c22.667 -11.333 46.5 -21 71.5 -29s51.167 -14.167 78.5 -18.5s55 -6.5 83 -6.5
c80.667 0 155.334 16.5 224.001 49.5s123 78.167 163 135.5s60 119.833 60 187.5s-20 130 -60 187s-94.333 102.167 -163 135.5s-143.334 50 -224.001 50zM512.001 -33c-79.333 0 -152.333 17.001 -219 51.001l-16 8l-62 -43l14 75l-14 11
c-38.667 32 -68.334 68.667 -89.001 110s-31 84.666 -31 129.999c0 62 18.667 119.333 56 172s88 94.334 152 125.001s133.667 46 209 46s145 -15.333 209 -46s114.667 -72.334 152 -125.001s56 -110 56 -172c0 -46 -11 -90.167 -33 -132.5s-51.667 -78.833 -89 -109.5
s-81.666 -55 -132.999 -73s-105.333 -27 -162 -27zM318.001 330.001c-4 0 -7.83203 -0.833008 -11.499 -2.5s-6.83398 -3.83398 -9.50098 -6.50098s-4.66699 -5.83398 -6 -9.50098s-2 -7.5 -2 -11.5c0 -8 2.83301 -15 8.5 -21s12.5 -9 20.5 -9
c5.33301 0 10.333 1.33301 15 4s8.33398 6.33398 11.001 11.001s4 9.66699 4 15s-1.33301 10.333 -4 15s-6.33398 8.33398 -11.001 11.001s-9.66699 4 -15 4zM512.002 330.001c-4 0 -7.83105 -0.831055 -11.498 -2.49805s-6.83398 -3.83398 -9.50098 -6.50098
s-4.83398 -5.83398 -6.50098 -9.50098s-2.5 -7.5 -2.5 -11.5c0 -8 3 -15 9 -21s13 -9 21 -9s15 3 21 9s9 13 9 21s-3 15 -9 21s-13 9 -21 9zM705.504 330.003c-8.33301 0 -15.334 -2.99902 -21.001 -8.99902s-8.5 -13 -8.5 -21c0 -5.33301 1.33301 -10.333 4 -15
s6.33398 -8.33398 11.001 -11.001s9.66699 -4 15 -4c8 0 14.833 3 20.5 9s8.5 13 8.5 21s-2.83301 15 -8.5 21s-12.667 9 -21 9z" />
    <glyph glyph-name="uniE63F" unicode="&#xe63f;" 
d="M333 300c4 0 7.83398 0.833984 11.501 2.50098s6.83398 3.83398 9.50098 6.50098s4.83398 5.83398 6.50098 9.50098s2.5 7.5 2.5 11.5c0 8 -2.83301 15 -8.5 21s-12.834 9 -21.501 9c-4 0 -7.83301 -0.833008 -11.5 -2.5s-6.83398 -3.83398 -9.50098 -6.50098
s-4.83398 -5.83398 -6.50098 -9.50098s-2.5 -7.5 -2.5 -11.5c0 -8.66699 3 -15.834 9 -21.501s13 -8.5 21 -8.5zM512.001 300.001c8 0 15.002 2.83594 21.002 8.50293s9 12.667 9 21s-3 15.5 -9 21.5s-13 9 -21 9c-4 0 -7.83301 -0.833008 -11.5 -2.5
s-6.83398 -3.83398 -9.50098 -6.50098s-4.83398 -5.83398 -6.50098 -9.50098s-2.5 -7.5 -2.5 -11.5c0 -8.66699 3 -15.834 9 -21.501s13 -8.5 21 -8.5zM691.003 300.004c8 0 14.998 2.83496 20.998 8.50195s9 12.667 9 21s-3 15.5 -9 21.5s-13 9 -21 9
c-3.33301 0 -6.5 -0.5 -9.5 -1.5s-5.66699 -2.5 -8 -4.5s-4.5 -4.16699 -6.5 -6.5s-3.5 -5 -4.5 -8s-1.5 -6.16699 -1.5 -9.5c0 -4 0.833008 -7.83301 2.5 -11.5s3.83398 -6.83398 6.50098 -9.50098s5.83398 -4.83398 9.50098 -6.50098s7.5 -2.5 11.5 -2.5zM954.501 638.506
c-1 1 -2.00195 1.83301 -3.00195 2.5s-2.16699 1.16699 -3.5 1.5s-2.66602 0.5 -3.99902 0.5h-864c-1.33301 0 -2.66602 -0.166992 -3.99902 -0.5s-2.5 -0.833008 -3.5 -1.5s-2.16699 -1.66699 -3.5 -3c-2.66699 -3.33301 -4 -6.66602 -4 -9.99902v-573
c0 -1.33301 0.333008 -3 1 -5s1.66699 -3.66699 3 -5c3.33301 -2.66699 7 -4 11 -4h685l79 -79c4.66699 -4.66699 10.167 -5.83398 16.5 -3.50098s9.5 6.83301 9.5 13.5v69h74c2 0 3.83301 0.333008 5.5 1s3.5 1.66699 5.5 3c2.66699 2.66699 4 6 4 10v573
c0 1.33301 -0.166992 2.5 -0.5 3.5s-0.833008 2.16699 -1.5 3.5s-1.5 2.5 -2.5 3.5zM928.999 70.0059h-89v-62l-62 62h-683v543h834v-543z" />
    <glyph glyph-name="uniE640" unicode="&#xe640;" 
d="M696 572l0.00292969 -33c17.333 -10.667 33.5 -22.5 48.5 -35.5s28.833 -27.167 41.5 -42.5s24 -31.666 34 -48.999s18.5 -35.333 25.5 -54s12.333 -38.334 16 -59.001s5.5 -41.667 5.5 -63c0 -64 -15.833 -123.333 -47.5 -178s-74.834 -97.834 -129.501 -129.501
s-114 -47.5 -178 -47.5s-123.333 15.833 -178 47.5s-97.834 74.834 -129.501 129.501s-47.5 114 -47.5 178c0 42 7.16699 82.5 21.5 121.5s34.166 73.833 59.499 104.5s55.333 56.334 90 77.001v33c-40 -22 -74.833 -49.833 -104.5 -83.5s-52.834 -72.334 -69.501 -116.001
s-25 -89.167 -25 -136.5c0 -69.333 17.167 -133.333 51.5 -192s80.833 -105.167 139.5 -139.5s122.667 -51.5 192 -51.5c52 0 101.667 10.167 149 30.5s88 47.5 122 81.5s61.167 74.667 81.5 122s30.5 97 30.5 149c0 28.667 -3 56.667 -9 84s-14.833 53.333 -26.5 78
s-25.667 47.667 -42 69s-34.666 40.833 -54.999 58.5s-42.5 33.167 -66.5 46.5zM498.003 747h28v-369h-28v369z" />
    <glyph glyph-name="uniE641" unicode="&#xe641;" 
d="M65 510v-569h894v569h-894zM929 -29h-834v509h834v-509zM154 584h716v-30h-716v30zM259 659h506v-30h-506v30z" />
    <glyph glyph-name="uniE642" unicode="&#xe642;" 
d="M700 263c22.667 16 42.168 35.165 58.501 57.498s29 47 38 74s13.5 55.167 13.5 84.5c0 74 -26.167 137.167 -78.5 189.5s-115.5 78.5 -189.5 78.5s-137.167 -26.167 -189.5 -78.5s-78.5 -115.5 -78.5 -189.5c0 -29.333 4.5 -57.5 13.5 -84.5s21.667 -51.667 38 -74
s35.5 -41.5 57.5 -57.5c-94.667 -31.333 -171.334 -83.666 -230.001 -156.999s-88 -157.666 -88 -252.999h30c0 92.667 29.833 174.167 89.5 244.5s137.167 118.5 232.5 144.5c39.333 -20.667 81 -31 125 -31s85.667 10.333 125 31c10.667 5.33301 21.667 12.333 33 21z
M616.001 251.998c-24.667 -8 -49.335 -12.001 -74.002 -12.001h-12l-10 2c-4 0 -7.66699 0.166992 -11 0.5s-6.83301 0.833008 -10.5 1.5l-10.5 2l-10 4l-10 2c-16 5.33301 -31.667 12.666 -47 21.999c-23.333 13.333 -43.833 30.5 -61.5 51.5s-31.5 44.667 -41.5 71
s-15 53.833 -15 82.5c0 65.333 23.333 121.333 70 168s102.834 70 168.501 70s121.834 -23.333 168.501 -70s70 -102.667 70 -168c0 -43.333 -10.667 -83.166 -32 -119.499s-50 -64.833 -86 -85.5c-2 -2 -4.33301 -3.66699 -7 -5s-5.16699 -2.66602 -7.5 -3.99902
s-4.83301 -2.33301 -7.5 -3l-8 -4l-8 -2zM810 31.9971v149h-30v-149h-149v-30h149v-149h30v149h149v30h-149z" />
    <glyph glyph-name="uniE643" unicode="&#xe643;" 
d="M959 122l-21 21l-105 -105l-106 105l-21 -21l105 -105l-105 -105l21 -22l106 106l105 -106l21 22l-105 105zM810 479c0 74 -26.167 137.163 -78.5 189.496s-115.5 78.5 -189.5 78.5s-137.167 -26.167 -189.5 -78.5s-78.5 -115.5 -78.5 -189.5
c0 -29.333 4.5 -57.5 13.5 -84.5s21.667 -51.667 38 -74s35.5 -41.5 57.5 -57.5c-94.667 -31.333 -171.334 -83.666 -230.001 -156.999s-88 -157.666 -88 -252.999h30c0 92.667 29.833 174.167 89.5 244.5s137.167 118.5 232.5 144.5c39.333 -20.667 81 -31 125 -31
c14.667 0 29.334 1.16699 44.001 3.5s28.667 5.83301 42 10.5s26.333 10.334 39 17.001c10.667 5.33301 21.667 12.333 33 21c34 24.667 60.833 55.834 80.5 93.501s29.5 78.5 29.5 122.5zM662 273.996c-7.33301 -4.66699 -14.834 -8.8291 -22.501 -12.4961
s-15.5 -6.83398 -23.5 -9.50098c-24.667 -8 -49.334 -12 -74.001 -12c-12.667 0 -25.167 1 -37.5 3s-24.5 5 -36.5 9c-16 5.33301 -31.667 12.666 -47 21.999c-36 20.667 -64.667 49.167 -86 85.5s-32 76.166 -32 119.499c0 65.333 23.333 121.333 70 168s103 70 169 70
c26 0 51 -4 75 -12s45.833 -19.333 65.5 -34s36.834 -31.834 51.501 -51.501s26 -41.5 34 -65.5s12 -49 12 -75c0 -21.333 -2.83301 -42.333 -8.5 -63s-13.667 -39.667 -24 -57s-22.666 -33.333 -36.999 -48s-30.5 -27 -48.5 -37z" />
    <glyph glyph-name="uniE644" unicode="&#xe644;" 
d="M572 486h-30v-238h-149v-29h179v267zM492 747c-80 0 -153.659 -19.5 -220.992 -58.5s-121 -91.167 -161 -156.5l-1 215h-24l1 -259v-2h-1h1v-13l274 -1v24l-236 1c24 43.333 54.333 81.5 91 114.5s79 58.833 127 77.5s98 28 150 28c75.333 0 145 -18.667 209 -56
s114.667 -88 152 -152s56 -133.667 56 -209c0 -28.667 -2.83301 -56.667 -8.5 -84s-13.834 -53.333 -24.501 -78s-23.5 -48.334 -38.5 -71.001s-31.833 -43.334 -50.5 -62.001s-39.334 -35.667 -62.001 -51s-46.334 -28.166 -71.001 -38.499s-50.834 -18.333 -78.501 -24
s-55.5 -8.5 -83.5 -8.5c-80.667 0 -154.334 21 -221.001 63s-117.334 98 -152.001 168h-34c36 -78 90.5 -141 163.5 -189s154.167 -72 243.5 -72c60.667 0 118.5 11.833 173.5 35.5s102.5 55.5 142.5 95.5s71.833 87.5 95.5 142.5s35.5 112.833 35.5 173.5
c0 40.667 -5.33301 80.334 -16 119.001s-25.667 74.334 -45 107.001s-42.833 62.667 -70.5 90s-57.834 50.666 -90.501 69.999s-68.334 34.333 -107.001 45s-78 16 -118 16z" />
    <glyph glyph-name="uniE645" unicode="&#xe645;" 
d="M714 747h-26h-240h-383v-894h894v649zM368 715h288v-223h-288v223zM927 -115h-830v830h239v-255h352v255h12l227 -227v-603zM328 172h368v-32h-368v32zM328 61h368v-32h-368v32zM592 595h32v-79h-32v79z" />
    <glyph glyph-name="uniE646" unicode="&#xe646;" 
d="M585 300c0 -12 -4.16797 -21.999 -12.501 -29.999s-18.166 -12 -29.499 -12c-8 0 -15.167 1.83301 -21.5 5.5s-11.5 8.66699 -15.5 15s-6 13.5 -6 21.5c0 4.66699 0.666992 9.16699 2 13.5s3.33301 8.16602 6 11.499s5.83398 6.33301 9.50098 9s7.66699 4.66699 12 6
s8.83301 2 13.5 2c11.333 0 21.166 -4 29.499 -12s12.5 -18 12.5 -30zM542.499 402.001c13.667 0 26.8281 2.66406 39.4951 7.99707s23.5 12.5 32.5 21.5s16.167 19.833 21.5 32.5s8 26 8 40c0 28 -9.83301 51.833 -29.5 71.5s-43.5 29.5 -71.5 29.5
c-11.333 0 -22.166 -1.66699 -32.499 -5s-19.666 -8.16602 -27.999 -14.499s-15.666 -13.666 -21.999 -21.999s-11.166 -17.666 -14.499 -27.999s-5 -20.833 -5 -31.5c0 -14 2.66699 -27.333 8 -40s12.5 -23.5 21.5 -32.5s19.833 -16.167 32.5 -21.5s25.834 -8 39.501 -8z
M542.993 577.998c5.33301 0 10.8311 -0.666992 16.498 -2s10.834 -3.33301 15.501 -6s9.16699 -5.66699 13.5 -9s8.16602 -7.16602 11.499 -11.499s6.33301 -8.83301 9 -13.5s4.66699 -9.83398 6 -15.501s2 -11.167 2 -16.5c0 -20.667 -7.33301 -38.167 -22 -52.5
s-32.167 -21.5 -52.5 -21.5s-37.666 7.16699 -51.999 21.5s-21.5 31.833 -21.5 52.5c0 10 1.83301 19.5 5.5 28.5s8.83398 16.833 15.501 23.5s14.667 12 24 16s19 6 29 6zM542.991 197.998c-14 0 -27.334 -2.66797 -40.001 -8.00098s-23.5 -12.5 -32.5 -21.5
s-16.167 -19.833 -21.5 -32.5s-8 -26 -8 -40c0 -28 9.83301 -51.833 29.5 -71.5s43.834 -29.5 72.501 -29.5c13.333 0 26.333 2.66699 39 8s23.5 12.5 32.5 21.5s16.167 19.833 21.5 32.5s8 25.667 8 39c0 28.667 -9.83301 52.834 -29.5 72.501s-43.5 29.5 -71.5 29.5z
M542.99 21.9971c-20.667 0 -38.166 7.33398 -52.499 22.001s-21.5 32.167 -21.5 52.5s7.16699 37.666 21.5 51.999s31.666 21.5 51.999 21.5s37.833 -7.16699 52.5 -21.5s22 -31.833 22 -52.5c0 -28.667 -12.667 -50 -38 -64c-12 -6 -24 -9.33301 -36 -10zM745.991 401.998
c-9.33301 0 -18.335 -1.33008 -27.002 -3.99707s-16.667 -6.16699 -24 -10.5s-14.166 -9.5 -20.499 -15.5s-11.666 -12.833 -15.999 -20.5s-7.83301 -15.834 -10.5 -24.501s-4 -17.667 -4 -27c0 -28 10 -52 30 -72s44 -30 72 -30c14 0 27.333 2.66699 40 8
s23.5 12.666 32.5 21.999s16.167 20.166 21.5 32.499s8 25.5 8 39.5c0 28 -10 52 -30 72s-44 30 -72 30zM746.489 226.001c-20.333 0 -37.833 7.16699 -52.5 21.5s-22 31.833 -22 52.5s7.33301 38.167 22 52.5s32.167 21.5 52.5 21.5s37.666 -7.16699 51.999 -21.5
s21.5 -31.833 21.5 -52.5s-7.16699 -38.167 -21.5 -52.5s-31.666 -21.5 -51.999 -21.5zM338.989 402.001c-28 0 -52.002 -10 -72.002 -30s-30 -44 -30 -72c0 -9.33301 1.33301 -18.333 4 -27s6.16699 -16.834 10.5 -24.501s9.5 -14.5 15.5 -20.5s12.833 -11.167 20.5 -15.5
s15.834 -7.83301 24.501 -10.5s17.667 -4 27 -4c18.667 0 35.834 4.5 51.501 13.5s28 21.333 37 37s13.5 32.834 13.5 51.501c0 28 -10 52 -30 72s-44 30 -72 30zM338.987 226.001c-20.667 0 -38.165 7.16699 -52.498 21.5s-21.5 31.833 -21.5 52.5
c0 13.333 3.33301 25.666 10 36.999s15.667 20.333 27 27s23.666 10 36.999 10s25.666 -3.33301 36.999 -10s20.333 -15.667 27 -27s10 -23.666 10 -36.999c0 -20.667 -7.16699 -38.167 -21.5 -52.5s-31.833 -21.5 -52.5 -21.5zM542.989 716.001
c-76 0 -145.833 -18.499 -209.5 -55.499s-114.167 -87.5 -151.5 -151.5s-56 -133.667 -56 -209c0 -46.667 7.66699 -92 23 -136c3.33301 -10 7 -19.667 11 -29s8.33301 -18.333 13 -27c2 -3.33301 4 -7 6 -11c6 -12 9 -24.333 9 -37c0 -24 -8.5 -44.5 -25.5 -61.5
s-37.5 -25.5 -61.5 -25.5c-8 0 -16 1 -24 3c-2.66699 -9.33301 -6.66699 -17.666 -12 -24.999c12 -4 24 -6 36 -6c30.667 0 57 10.5 79 31.5s33.667 46.5 35 76.5v2v5c0 18 -4 35 -12 51c0 0.666992 -1 2.66699 -3 6c-30.667 57.333 -46 118.333 -46 183
c0 70 17.333 135 52 195s81.834 107.333 141.501 142s124.834 52 195.501 52c52.667 0 102.834 -10.333 150.501 -31s89 -48.334 124 -83.001s62.667 -76 83 -124s30.5 -98.333 30.5 -151c0 -70 -17.333 -135 -52 -195s-81.834 -107.333 -141.501 -142
s-124.5 -52 -194.5 -52c-80.667 0 -154.334 23 -221.001 69c-0.666992 -5.33301 -1.5 -10.333 -2.5 -15s-2.16699 -9.33398 -3.5 -14.001c68.667 -44.667 144.334 -67 227.001 -67c107.333 0 200.666 36 279.999 108c77.333 70.667 121.666 157.667 132.999 261
c2 16 3 31.667 3 47c0 56.667 -11 110.667 -33 162s-51.5 95.5 -88.5 132.5s-81.333 66.5 -133 88.5s-105.5 33 -161.5 33z" />
    <glyph glyph-name="uniE647" unicode="&#xe647;" 
d="M843 624v0.999023c-3.33301 34 -37 62.833 -101 86.5s-140.667 35.5 -230 35.5c-58.667 0 -113 -5.5 -163 -16.5s-90 -25.833 -120 -44.5s-46 -39 -48 -61v-1v-1v-3v-4v-191c0 -94 30.667 -174.667 92 -242s136.333 -103 225 -107v-194h-101v-29h101h28h101v29h-101v194
c58 2.66699 111.333 19.834 160 51.501s87 73.667 115 126s42 109.5 42 171.5v191v4v4zM814 424.999c0 -58 -13.499 -111.667 -40.499 -161s-63.667 -88.333 -110 -117s-96.833 -43 -151.5 -43c-82.667 0 -153.667 31 -213 93c-59.333 63.333 -89 139.333 -89 228v143
c26 -22.667 66.333 -41 121 -55s115.167 -21 181.5 -21s126.666 7 180.999 21s94.5 32.333 120.5 55v-143zM512.001 520.999c-44 0 -85.498 3.33496 -124.498 10.002s-71.167 14.834 -96.5 24.501s-45.333 20.167 -60 31.5s-22 22.166 -22 32.499s7.33301 21.166 22 32.499
s34.667 22 60 32s57.5 18.167 96.5 24.5s80.5 9.5 124.5 9.5s85.5 -3.16699 124.5 -9.5s71.167 -14.5 96.5 -24.5s45.333 -20.667 60 -32s22 -22 22 -32c0 -6.66699 -3.33301 -13.834 -10 -21.501s-15.834 -15.167 -27.501 -22.5s-26.667 -14.333 -45 -21
s-38.333 -12.5 -60 -17.5s-46.334 -9 -74.001 -12s-56.5 -4.5 -86.5 -4.5z" />
    <glyph glyph-name="uniE648" unicode="&#xe648;" 
d="M691 553l-0.000976562 105c0 1.33301 -0.166992 2.5 -0.5 3.5s-0.833008 2.16699 -1.5 3.5s-1.5 2.5 -2.5 3.5s-2 1.83301 -3 2.5s-2.16699 1.16699 -3.5 1.5s-2.66602 0.166016 -3.99902 -0.500977h-328h-4c-1.33301 0 -2.5 -0.333008 -3.5 -1
s-1.83301 -1.66699 -2.5 -3c-3.33301 -2.66699 -5 -6 -5 -10v-105h-268v-193v-30v-388c0 -2 0.333008 -3.83301 1 -5.5s1.66699 -3.16699 3 -4.5c3.33301 -3.33301 7 -4.66602 11 -3.99902h864c2 0 3.83301 0.333008 5.5 1s3.5 1.66699 5.5 3c2.66699 2.66699 4 6 4 10v388
v30v193h-268zM362.999 643h298v-90h-298v90zM928.999 -43h-834v373h395v-45h44v45h395v-373zM928.999 360h-834v164h268h298h268v-164z" />
    <glyph glyph-name="uniE649" unicode="&#xe649;" 
d="M954 500c-3.33301 3.33301 -7.33496 5 -12.002 5h-441h-18l-37 143c-1.33301 4 -3.33301 7 -6 9c-1.33301 0.666992 -2.83301 1.33398 -4.5 2.00098s-3.5 1 -5.5 1h-262c-5.33301 -0.666992 -9.66602 -2.33398 -12.999 -5.00098c-3.33301 -3.33301 -5 -7.33301 -5 -12
l-34 -138h-34c-4.66699 0 -8.66699 -1.66699 -12 -5s-5 -7.66602 -5 -12.999l33 -530v-3l2 -4c0 -0.666992 0.333008 -1.5 1 -2.5s1.33398 -1.83301 2.00098 -2.5c2 -1.33301 4 -2.5 6 -3.5s4 -1.5 6 -1.5h777c2 0 4 0.5 6 1.5s3.83301 2.16699 5.5 3.5s3 3 4 5
s1.5 4.33301 1.5 7l50 530c0 5.33301 -1.66699 9.66602 -5 12.999zM177.998 630h242l32 -125h-305zM879.998 -30h-753l-31 505h43h320h1h468z" />
    <glyph glyph-name="uniE64A" unicode="&#xe64a;" 
d="M745 643h-466l-214 -373v-313h894v313zM296 613l432.001 -0.000976562l197 -343h-294c0 -32.667 -11.667 -60.667 -35 -84s-51.333 -35 -84 -35c-16 0 -31.333 3.16699 -46 9.5s-27.334 14.833 -38.001 25.5s-19.167 23.334 -25.5 38.001s-9.5 30 -9.5 46h-294z
M929.001 -13.001h-834v253h271c2 -9.33301 4.83301 -18.5 8.5 -27.5s8.33398 -17.5 14.001 -25.5s11.834 -15.333 18.501 -22s14 -12.667 22 -18s16.333 -10 25 -14s18 -7 28 -9s20 -3 30 -3c35.333 0 66.666 11.333 93.999 34s44.666 51 51.999 85h271v-253z
M214.001 374.999h596v-30h-596v30zM288.001 463.999h448v-30h-448v30zM363.001 552.999h298v-29h-298v29z" />
    <glyph glyph-name="uniE64B" unicode="&#xe64b;" 
d="M527 304l-0.000976562 213h-30v-213c-10 -5.33301 -15 -13.666 -15 -24.999c0 -5.33301 1.33301 -10.333 4 -15s6.33398 -8.33398 11.001 -11.001v-35h30v35c2 1.33301 4 2.83301 6 4.5s3.66699 3.66699 5 6s2.33301 4.83301 3 7.5s1 5.33398 1 8.00098
c0 11.333 -5 19.666 -15 24.999zM835.999 545l-2.00488 2.00195l44 45l32 -32l21 21l-32 32l-21 21l-32 32l-21 -21l32 -32l-44 -43l-1 1c-37.333 38 -80.5 67.833 -129.5 89.5s-100.833 33.5 -155.5 35.5v51h-30v-51c-55.333 -2 -108.166 -14.5 -158.499 -37.5
s-93.666 -53.167 -129.999 -90.5s-65.166 -81.5 -86.499 -132.5s-32 -104.5 -32 -160.5c0 -76.667 18.833 -147.334 56.5 -212.001s88.834 -115.834 153.501 -153.501s135.334 -56.5 212.001 -56.5c57.333 0 112 11.167 164 33.5s96.833 52.333 134.5 90
s67.667 82.5 90 134.5s33.5 106.667 33.5 164c0 102 -32.667 192 -98 270zM511.994 -116.998c-70.667 0 -136.167 17.5 -196.5 52.5s-108 82.667 -143 143s-52.5 125.833 -52.5 196.5s17.5 136.167 52.5 196.5s82.667 108 143 143s125.833 52.5 196.5 52.5
c52.667 0 103 -10.167 151 -30.5s90.667 -49.166 128 -86.499l12 -12l10 -12c60.667 -72.667 91 -156.334 91 -251.001c0 -102 -34.667 -190.667 -104 -266c-68.667 -74 -152.667 -115.333 -252 -124c-12 -1.33301 -24 -2 -36 -2z" />
    <glyph glyph-name="uniE64C" unicode="&#xe64c;" 
d="M923 733l-250.998 -0.00292969v-34h228l-244 -243c-45.333 41.333 -97.5 68.833 -156.5 82.5s-117.667 12.334 -176 -3.99902s-109.5 -46.166 -153.5 -89.499c-45.333 -45.333 -76 -98.333 -92 -159s-16 -121.167 0 -181.5s46.667 -113.166 92 -158.499
c34 -34 73 -59.667 117 -77s88.167 -26 132.5 -26s88.5 8.66699 132.5 26s83 43 117 77c43.333 44 73.166 95.167 89.499 153.5s17.666 117 3.99902 176s-41.167 111.167 -82.5 156.5l243 244v-228h34v251v34h-34zM645.002 -30.0029
c-40.667 -40.667 -88.501 -68.334 -143.501 -83.001s-109.833 -14.667 -164.5 0s-102.334 42.334 -143.001 83.001s-68.334 88.334 -83.001 143.001s-14.667 109.5 0 164.5s42.334 102.833 83.001 143.5c30.667 30.667 65.834 54 105.501 70s79.667 24 120 24
s80.333 -8 120 -24s74.834 -39.333 105.501 -70c40.667 -40.667 68.334 -88.5 83.001 -143.5s14.667 -109.833 0 -164.5s-42.334 -102.334 -83.001 -143.001z" />
    <glyph glyph-name="uniE64D" unicode="&#xe64d;" 
d="M171 404c-28.667 0 -53.167 -10.167 -73.5 -30.5s-30.5 -44.833 -30.5 -73.5s10.167 -53.167 30.5 -73.5s44.833 -30.5 73.5 -30.5c14 0 27.333 2.83301 40 8.5s23.667 13 33 22s16.833 20 22.5 33s8.5 26.5 8.5 40.5c0 28.667 -10.167 53.167 -30.5 73.5
s-44.833 30.5 -73.5 30.5zM171 226c-10 0 -19.666 2.00098 -28.999 6.00098s-17.333 9.16699 -24 15.5s-11.834 14.166 -15.501 23.499s-5.5 19 -5.5 29c0 13.333 3.33301 25.666 10 36.999s15.667 20.333 27 27s23.666 10 36.999 10c20.667 0 38.167 -7.16699 52.5 -21.5
s21.5 -31.833 21.5 -52.5c0 -6.66699 -0.833008 -13.167 -2.5 -19.5s-4.16699 -12.333 -7.5 -18s-7.33301 -10.667 -12 -15s-9.66699 -8.16602 -15 -11.499s-11.166 -5.83301 -17.499 -7.5s-12.833 -2.5 -19.5 -2.5zM512.001 404.001c-28.667 0 -53.167 -10.167 -73.5 -30.5
s-30.5 -44.833 -30.5 -73.5s10.167 -53.167 30.5 -73.5s44.833 -30.5 73.5 -30.5s53.167 10.167 73.5 30.5s30.5 44.833 30.5 73.5s-10.167 53.167 -30.5 73.5s-44.833 30.5 -73.5 30.5zM512.001 226.001c-13.333 0 -25.666 3.33398 -36.999 10.001s-20.333 15.667 -27 27
s-10 23.666 -10 36.999c0 20.667 7.16699 38.167 21.5 52.5s31.833 21.5 52.5 21.5c13.333 0 25.666 -3.33301 36.999 -10s20.333 -15.667 27 -27s10 -23.666 10 -36.999c0 -28.667 -12.667 -50.334 -38 -65.001c-11.333 -6 -23.333 -9 -36 -9zM853.001 404.002
c-14 0 -27.3311 -2.83301 -39.998 -8.5s-23.667 -13 -33 -22s-16.833 -20 -22.5 -33s-8.5 -26.5 -8.5 -40.5c0 -18.667 4.66699 -36 14 -52s22 -28.667 38 -38s33.333 -14 52 -14c28.667 0 53.167 10.167 73.5 30.5s30.5 44.833 30.5 73.5c0 8 -0.833008 15.833 -2.5 23.5
s-4.33398 15 -8.00098 22s-7.83398 13.5 -12.501 19.5s-10 11.333 -16 16s-12.333 8.66699 -19 12s-14 6 -22 8s-16 3 -24 3zM853.003 226.002c-20.667 0 -38.166 7.16602 -52.499 21.499s-21.5 31.833 -21.5 52.5s7.16699 38.167 21.5 52.5s31.833 21.5 52.5 21.5
s38.167 -7.16699 52.5 -21.5s21.5 -31.833 21.5 -52.5c0 -10 -1.83301 -19.667 -5.5 -29s-8.83398 -17.166 -15.501 -23.499s-14.667 -11.5 -24 -15.5s-19 -6 -29 -6z" />
    <glyph glyph-name="uniE64E" unicode="&#xe64e;" 
d="M251 730l-0.000976562 -169h-184v-599c0 -12 2.33301 -23.5 7 -34.5s11.334 -21.167 20.001 -30.5c18 -18 39.667 -27 65 -27h614h92c25.333 0 47 9 65 27s27 39.667 27 65v768h-706zM250.999 -38c0 -22.667 -8 -43 -24 -61h-68c-16.667 0 -31 6 -43 18
s-18 26.333 -18 43v568h153v-568zM925.999 -38c0 -16.667 -6.00098 -31 -18.001 -43c-3.33301 -4 -7.33301 -7.33301 -12 -10s-9.66699 -4.66699 -15 -6s-10.666 -2 -15.999 -2h-92h-31h-477c11.333 18.667 17 39 17 61v584v30v123h644v-737zM864.998 638h-522v-292h522v292
zM833.998 377h-460v230h460v-230zM342.998 239h522v-31h-522v31zM342.998 116h522v-31h-522v31z" />
    <glyph glyph-name="uniE64F" unicode="&#xe64f;" 
d="M440 650h-254v-255h254v255zM409 427h-191v191h191v-191zM488 650h255v-32h-255v32zM488 538h255v-31h-255v31zM488 443h96v-32h-96v32zM115 -81v794h699v-355c10 -5.33301 20.667 -12 32 -20v407h-763v-858h440c-14 10 -26.667 20.667 -38 32h-370zM845 -26
c16.667 18.667 29.5 40 38.5 64s13.5 49 13.5 75c0 38.667 -9.5 74.5 -28.5 107.5s-45 59 -78 78s-68.833 28.5 -107.5 28.5c-59.333 0 -109.833 -20.833 -151.5 -62.5s-62.5 -92 -62.5 -151s20.833 -109.5 62.5 -151.5s92.167 -63 151.5 -63c52.667 0 99 17.333 139 52
l97 -96l22 22zM817 -11l-5.00098 -5.00098l-5 -4c-35.333 -32.667 -76.666 -49 -123.999 -49c-50.667 0 -93.834 17.833 -129.501 53.5s-53.5 78.667 -53.5 129s17.833 93.333 53.5 129s78.834 53.5 129.501 53.5c16 0 31.667 -2.16699 47 -6.5s30 -10.5 44 -18.5
s26.667 -17.667 38 -29c35.333 -35.333 53 -78.333 53 -129c0 -47.333 -16 -88.666 -48 -123.999zM439.999 247.999v51.998h-254v-254h228c-2.66699 10.667 -4.66699 21.334 -6 32.001h-190v190h191v-113c0.666992 5.33301 1.5 10.833 2.5 16.5s2.33301 11.167 4 16.5
l5 15.5c1.66699 5 3.5 10.167 5.5 15.5s4.16699 10.333 6.5 15s4.83301 9.33398 7.5 14.001z" />
    <glyph glyph-name="uniE650" unicode="&#xe650;" 
d="M512 745c-60.667 0 -118.332 -11.667 -172.999 -35s-102 -55 -142 -95s-71.667 -87.333 -95 -142s-35 -112.334 -35 -173.001s11.667 -118.334 35 -173.001s55 -102 95 -142s87.333 -71.667 142 -95s112.334 -35 173.001 -35c113.333 0 212 37.667 296 113
c81.333 72.667 129.666 162.667 144.999 270c2.66699 20.667 4 41.334 4 62.001c0 60.667 -11.667 118.334 -35 173.001s-55 102 -95 142s-87.333 71.667 -142 95s-112.334 35 -173.001 35zM512.002 -115c-75.333 0 -144.833 18.5 -208.5 55.5s-114 87.333 -151 151
s-55.5 133.167 -55.5 208.5s18.5 144.833 55.5 208.5s87.333 114 151 151s133.167 55.5 208.5 55.5s144.833 -18.5 208.5 -55.5s114 -87.333 151 -151s55.5 -133.167 55.5 -208.5s-18.5 -144.833 -55.5 -208.5s-87.333 -114 -151 -151s-133.167 -55.5 -208.5 -55.5z
M617.002 468l63 -63l21 21l-63 63zM323.002 174v-63h63l-31 32zM355.002 206l63 -63l230 230l-63 63z" />
    <glyph glyph-name="uniE651" unicode="&#xe651;" 
d="M512 745c-48 0 -94.668 -7.50098 -140.001 -22.501s-86.333 -36.167 -123 -63.5s-68.667 -59.333 -96 -96s-48.5 -77.667 -63.5 -123s-22.5 -92 -22.5 -140c0 -60.667 11.667 -118.334 35 -173.001s55 -102 95 -142s87.333 -71.667 142 -95s112.334 -35 173.001 -35
s118.334 11.667 173.001 35s102 55 142 95s71.667 87.333 95 142s35 112.334 35 173.001s-11.667 118.334 -35 173.001s-55 102 -95 142s-87.333 71.667 -142 95s-112.334 35 -173.001 35zM511.999 -115.001c-75.333 0 -144.833 18.5 -208.5 55.5s-114 87.333 -151 151
s-55.5 133.167 -55.5 208.5s18.5 144.833 55.5 208.5s87.333 114 151 151s133.167 55.5 208.5 55.5c56 0 109.667 -11 161 -33s95.5 -51.5 132.5 -88.5s66.5 -81.167 88.5 -132.5s33 -105 33 -161c0 -75.333 -18.5 -144.833 -55.5 -208.5s-87.333 -114 -151 -151
s-133.167 -55.5 -208.5 -55.5zM521.999 247.999l-19.999 -20.999l20 -21c2 -2 3.33301 -4.33301 4 -7s0.666992 -5.33398 0 -8.00098s-2 -4.66699 -4 -6l-125 -126c-7.33301 -7.33301 -14.333 -7.33301 -21 0l-105 105c-7.33301 6.66699 -7.33301 13.667 0 21l126 125
c6.66699 7.33301 13.667 7.33301 21 0l21 -20l21 20l-21 21c-6 6 -12.833 10 -20.5 12s-15.334 2 -23.001 0s-14.167 -6 -19.5 -12l-126 -125c-4.66699 -4.66699 -8 -9.66699 -10 -15s-3 -10.833 -3 -16.5s1 -11.334 3 -17.001s5.33301 -10.5 10 -14.5l105 -105
c8.66699 -8.66699 19.167 -13 31.5 -13s22.833 4.33301 31.5 13l125 126c4.66699 4 8.16699 8.83301 10.5 14.5s3.5 11.334 3.5 17.001s-1.16699 11.167 -3.5 16.5s-5.83301 10.333 -10.5 15zM669 562c-3.33301 3.33301 -7.16797 6.16602 -11.501 8.49902
s-8.66602 3.83301 -12.999 4.5s-8.83301 0.666992 -13.5 0s-9 -2.16699 -13 -4.5s-8 -5.16602 -12 -8.49902l-125 -126c-9.33301 -8.66699 -14 -19.167 -14 -31.5s4.66699 -22.833 14 -31.5l21 -21l20 21l-20 21c-3.33301 3.33301 -5 7 -5 11s1.66699 7.33301 5 10l125 126
c3.33301 3.33301 7 5 11 5s7.33301 -1.66699 10 -5l105 -105c7.33301 -6.66699 7.33301 -13.667 0 -21l-126 -125c-6.66699 -7.33301 -13.667 -7.33301 -21 0l-21 20l-21 -20l21 -21c8.66699 -9.33301 19.167 -14 31.5 -14s22.833 4.66699 31.5 14l126 125
c8.66699 8.66699 13 19.167 13 31.5s-4.33301 22.833 -13 31.5zM428.498 216.5c7 -7 13.833 -7.16699 20.5 -0.5l147 147c6.66699 6.66699 6.66699 13.667 0 21c-2 2 -4.33301 3.33301 -7 4s-5.16699 0.666992 -7.5 0s-4.5 -2 -6.5 -4l-147 -147
c-6.66699 -6.66699 -6.5 -13.5 0.5 -20.5z" />
    <glyph glyph-name="uniE652" unicode="&#xe652;" 
d="M813 432c0 82.667 -29.333 153.5 -88 212.5s-129.667 88.5 -213 88.5s-154.333 -29.5 -213 -88.5s-88 -129.833 -88 -212.5c0 -80.667 27.833 -150 83.5 -208s123.5 -89 203.5 -93v-116h-144v-28h144v-144h28v144h144v28h-144v116c80 4 147.833 35 203.5 93
s83.5 127.333 83.5 208zM239 431.5c0 75 26.667 139.167 80 192.5s117.666 80 192.999 80s139.666 -26.667 192.999 -80s80 -117.5 80 -192.5s-26.667 -139.167 -80 -192.5s-117.666 -80 -192.999 -80s-139.666 26.667 -192.999 80s-80 117.5 -80 192.5z" />
    <glyph glyph-name="uniE653" unicode="&#xe653;" 
d="M451 114l-20.999 -21.001l82 -82c-14 0 -28.333 0.333008 -43 1c-120.667 6.66699 -218 33.334 -292 80.001c-53.333 34 -80 71.333 -80 112c0 24 9.66699 47.333 29 70v41c-18.667 -16.667 -33.167 -34.334 -43.5 -53.001s-15.5 -38 -15.5 -58
c0 -37.333 17.333 -72.166 52 -104.499s82.167 -58.833 142.5 -79.5s127.166 -33 200.499 -37c11.333 -0.666992 25 -1 41 -1l-73 -72l21 -21l92 91l21 21l-21 21zM321.001 463.999c14.667 0 28.166 3.66602 40.499 10.999s22.166 17.333 29.499 30s11 26.334 11 41.001
s-3.66699 28.334 -11 41.001s-17.166 22.667 -29.499 30s-25.833 11 -40.5 11c-22.667 0 -42 -8 -58 -24s-24 -35.333 -24 -58c0 -14.667 3.66699 -28.334 11 -41.001s17.333 -22.667 30 -30s26.334 -11 41.001 -11zM321 604.998c10 0 19.499 -2.66797 28.499 -8.00098
s16 -12.5 21 -21.5s7.5 -18.833 7.5 -29.5s-2.5 -20.5 -7.5 -29.5s-12 -16.167 -21 -21.5s-18.5 -8 -28.5 -8c-5.33301 0 -10.5 0.666992 -15.5 2s-9.66699 3.33301 -14 6s-8.33301 5.83398 -12 9.50098s-6.66699 7.66699 -9 12s-4.16602 9 -5.49902 14s-2 10.167 -2 15.5
c0 16 5.66699 29.833 17 41.5s25 17.5 41 17.5zM897.999 314.997l0.00195312 -40.999c19.333 -22.667 29 -46 29 -70c0 -45.333 -32 -85.833 -96 -121.5s-143.667 -58.167 -239 -67.5l14 -14l-16 -16c104.667 9.33301 192 34.666 262 75.999s105 89 105 143
c0 13.333 -2.33301 26.5 -7 39.5s-11.334 25.5 -20.001 37.5s-19.334 23.333 -32.001 34zM853.001 710.998h-682v-519h682v519zM824.001 221.998h-599l178 143l126 -85l295 201v-259zM824.001 517.998l-296 -201l-126 85l-202 -161v441h624v-164z" />
    <glyph glyph-name="uniE654" unicode="&#xe654;" 
d="M952 370l-25.999 -27.001c0.666992 -13.333 1 -25.333 1 -36c0 -114 -40.5 -211.667 -121.5 -293s-178.833 -122 -293.5 -122c-78 0 -149.5 20 -214.5 60s-115.5 93.333 -151.5 160h146v24l-184 -1v-13v0v-1l-1 -170h24l1 126
c39.333 -65.333 92.666 -117.5 159.999 -156.5s140.666 -58.5 219.999 -58.5c60.667 0 118.334 11.833 173.001 35.5s102 55.334 142 95.001s71.667 87 95 142s35 112.5 35 172.5c0 10.667 -0.333008 21.167 -1 31.5s-2 20.833 -4 31.5zM512.001 707.999
c78 0 149.499 -19.999 214.499 -59.999s115.5 -93.333 151.5 -160h-146v-24l184 1v13v0v1v170h-23l-1 -126c-39.333 65.333 -92.666 117.5 -159.999 156.5s-140.666 58.5 -219.999 58.5c-60.667 0 -118.334 -11.833 -173.001 -35.5s-102 -55.334 -142 -95.001
s-71.667 -87 -95 -142s-35 -112.5 -35 -172.5c0 -20.667 1.66699 -41.667 5 -63l26 27c-0.666992 13.333 -1 25.333 -1 36c0 44.667 7 88.167 21 130.5s33.833 80.5 59.5 114.5s55.5 63.833 89.5 89.5s72 45.5 114 59.5s85.667 21 131 21z" />
    <glyph glyph-name="uniE655" unicode="&#xe655;" 
d="M512.5 745c-48.333 0 -95.1689 -7.5 -140.502 -22.5s-86.333 -36.167 -123 -63.5s-68.667 -59.333 -96 -96s-48.5 -77.667 -63.5 -123s-22.5 -92 -22.5 -140c0 -60.667 11.667 -118.334 35 -173.001s55 -102 95 -142s87.333 -71.667 142 -95s112.334 -35 173.001 -35
s118.334 11.667 173.001 35s102 55 142 95s71.667 87.333 95 142s35 112.334 35 173.001c0 48.667 -7.5 95.5 -22.5 140.5s-36.167 85.833 -63.5 122.5s-59.333 68.667 -96 96s-77.5 48.5 -122.5 63.5s-91.667 22.5 -140 22.5zM511.997 -115
c-75.333 0 -144.833 18.5 -208.5 55.5s-114 87.333 -151 151s-55.5 133.167 -55.5 208.5s18.5 144.833 55.5 208.5s87.333 114 151 151s133.167 55.5 208.5 55.5s144.833 -18.5 208.5 -55.5s114 -87.333 151 -151s55.5 -133.167 55.5 -208.5s-18.5 -144.833 -55.5 -208.5
s-87.333 -114 -151 -151s-133.167 -55.5 -208.5 -55.5zM730.997 317c-24.667 16.667 -37 40.665 -37 71.998c0 25.333 -4 48.666 -12 69.999s-18.333 38.833 -31 52.5s-27.167 25.334 -43.5 35.001s-32.5 16.334 -48.5 20.001s-31.667 5.5 -47 5.5
c-12.667 0 -25.667 -1.33301 -39 -4s-26.833 -7 -40.5 -13s-26.667 -14 -39 -24s-23.166 -21.5 -32.499 -34.5s-16.833 -28.833 -22.5 -47.5s-8.5 -38.667 -8.5 -60c0 -31.333 -12.333 -55.333 -37 -72c-14 -10 -26.167 -27.667 -36.5 -53s-10.166 -55.333 0.500977 -90
l2 -10l10 2c13.333 2 24.666 12 33.999 30c4.66699 -18 16.667 -33 36 -45c0.666992 -0.666992 1.66699 -1.33398 3 -2.00098h-2c-7.33301 -0.666992 -14.833 -3.16699 -22.5 -7.5s-13.167 -10.166 -16.5 -17.499c-5.33301 -12 -3.33301 -23.667 6 -35
c16.667 -21.333 51.667 -32 105 -32c28 0 51 5.66699 69 17c2 1.33301 4.66699 3 8 5c7.33301 5.33301 15 8 23 8s15.667 -2.66699 23 -8c3.33301 -2 6 -3.66699 8 -5c18 -11.333 41 -17 69 -17c53.333 0 88.333 10.667 105 32c9.33301 11.333 11.333 23 6 35
c-2.66699 4.66699 -6.16699 9 -10.5 13s-9 6.83301 -14 8.5s-9.83301 2.83398 -14.5 3.50098h-2l3 2c7.33301 4.66699 14.5 11.167 21.5 19.5s11.833 16.833 14.5 25.5c9.33301 -18 20.666 -28 33.999 -30l10 -2l2 10c5.33301 20.667 7.83301 38.667 7.5 54
s-3.5 29.5 -9.5 42.5s-11.833 23 -17.5 30s-11.167 12.5 -16.5 16.5zM748.997 192.998c-2.66699 2.66699 -6.00293 7.6709 -10.0029 15.0039c-0.666992 2 -1.33398 3.33301 -2.00098 4c-6 10 -13.333 15 -22 15c-4 0 -7.66699 -1.66699 -11 -5
c-3.33301 -4 -5 -9.66699 -5 -17c0 -1.33301 -0.166992 -2.83301 -0.5 -4.5s-0.833008 -3.33398 -1.5 -5.00098s-1.5 -3.33398 -2.5 -5.00098s-2.16699 -3.16699 -3.5 -4.5s-2.66602 -2.83301 -3.99902 -4.5s-2.83301 -3.16699 -4.5 -4.5l-4.5 -3.5
c-1.33301 -1 -2.66602 -2.16699 -3.99902 -3.5c-12 -7.33301 -16.667 -16.333 -14 -27c0.666992 -2 1.5 -3.83301 2.5 -5.5s2.16699 -3.16699 3.5 -4.5s2.83301 -2.5 4.5 -3.5s3.66699 -1.66699 6 -2s4.5 -0.5 6.5 -0.5c9.33301 -0.666992 15.666 -4.66699 18.999 -12
c2 -4 1.33301 -8 -2 -12c-12.667 -16 -42 -24 -88 -24c-24 0 -43.333 4.66699 -58 14c-1.33301 0.666992 -3.33301 2 -6 4c-11.333 8.66699 -23.333 13 -36 13c-4.66699 0 -8.83398 -0.333008 -12.501 -1s-7 -1.83398 -10 -3.50098l-7 -4
c-1.66699 -1 -3.83398 -2.5 -6.50098 -4.5s-4.66699 -3.33301 -6 -4c-14.667 -9.33301 -34 -14 -58 -14c-12 0 -23.667 0.833008 -35 2.5s-22 4.33398 -32 8.00098s-17 8.16699 -21 13.5c-3.33301 4 -4 8 -2 12c3.33301 7.33301 9.66602 11.333 18.999 12c6 0 11 1.5 15 4.5
s6.66699 6.83301 8 11.5c0.666992 3.33301 0.666992 6.66602 0 9.99902s-2.16699 6.5 -4.5 9.5s-5.5 5.5 -9.5 7.5c-6 4 -11.833 9.5 -17.5 16.5s-8.16699 13.167 -7.5 18.5c0 7.33301 -1.66699 13 -5 17c-3.33301 2.66699 -7 4.33398 -11 5.00098
c-8.66699 0 -16 -5 -22 -15l-2 -4c-4 -7.33301 -7.33301 -12.333 -10 -15c-2 7.33301 -3.16699 14.666 -3.5 21.999s-0.166016 14 0.500977 20s1.83398 11.667 3.50098 17s3.5 10 5.5 14s4.16699 7.83301 6.5 11.5s4.5 6.66699 6.5 9s4 4.5 6 6.5l4 4l2 2
c30.667 21.333 46 51.333 46 90c0 24 3.83301 45.833 11.5 65.5s17.334 35.167 29.001 46.5s24.834 21 39.501 29s28.667 13.333 42 16s26 4 38 4s24.667 -1.33301 38 -4s27.333 -8 42 -16s27.834 -17.667 39.501 -29s21.334 -26.833 29.001 -46.5s11.5 -41.5 11.5 -65.5
c0 -16.667 3.33301 -32.834 10 -48.501s18.667 -29.5 36 -41.5c1.33301 -1.33301 3.16602 -3 5.49902 -5s5.83301 -6.16699 10.5 -12.5s8.33398 -13.333 11.001 -21s5 -17.5 7 -29.5s1 -24.667 -3 -38z" />
    <glyph glyph-name="uniE656" unicode="&#xe656;" 
d="M512 745c-60.667 0 -118.334 -11.667 -173.001 -35s-102 -55 -142 -95s-71.667 -87.333 -95 -142s-35 -112.334 -35 -173.001s11.667 -118.334 35 -173.001s55 -102 95 -142s87.333 -71.667 142 -95s112.334 -35 173.001 -35s118.334 11.667 173.001 35s102 55 142 95
s71.667 87.333 95 142s35 112.334 35 173.001s-11.667 118.334 -35 173.001s-55 102 -95 142s-87.333 71.667 -142 95s-112.334 35 -173.001 35zM512 -115c-75.333 0 -144.833 18.5 -208.5 55.5s-114 87.333 -151 151s-55.5 133.167 -55.5 208.5s18.5 144.833 55.5 208.5
s87.333 114 151 151s133.167 55.5 208.5 55.5c56 0 109.667 -11 161 -33s95.5 -51.5 132.5 -88.5s66.5 -81.167 88.5 -132.5s33 -105 33 -161s-11 -109.667 -33 -161s-51.5 -95.5 -88.5 -132.5s-81.167 -66.5 -132.5 -88.5s-105 -33 -161 -33zM469 432
c0 -3.33301 0.669922 -6.66895 2.00293 -10.002s3.16602 -6.16602 5.49902 -8.49902s5.16602 -4.16602 8.49902 -5.49902s6.66602 -2 9.99902 -2c4.66699 0 9 1.16699 13 3.5s7.16699 5.5 9.5 9.5s3.5 8.33301 3.5 13c0 7.33301 -2.5 13.5 -7.5 18.5s-11.167 7.5 -18.5 7.5
c-4.66699 0 -9 -1.16699 -13 -3.5s-7.16699 -5.5 -9.5 -9.5s-3.5 -8.33301 -3.5 -13zM337.003 431.997c0 -7.33301 2.49707 -13.5029 7.49707 -18.5029s11.167 -7.5 18.5 -7.5s13.5 2.5 18.5 7.5s7.5 11.167 7.5 18.5s-2.5 13.5 -7.5 18.5s-11.167 7.5 -18.5 7.5
c-3.33301 0 -6.66602 -0.666992 -9.99902 -2s-6.16602 -3.16602 -8.49902 -5.49902s-4.16602 -5.16602 -5.49902 -8.49902s-2 -6.66602 -2 -9.99902zM594 446.994c8 0.666992 15.999 1.00195 23.999 1.00195c-15.333 33.333 -40.166 60.166 -74.499 80.499
s-72.166 30.5 -113.499 30.5c-56 0 -104 -17.5 -144 -52.5s-60 -77.167 -60 -126.5c0 -28 7.16699 -54.5 21.5 -79.5s34.5 -46.167 60.5 -63.5l-41 -96l100 70c4.66699 -1.33301 9.33398 -2.5 14.001 -3.5s9.16699 -1.83301 13.5 -2.5l13.5 -2
c-0.666992 4 -1.5 7.83301 -2.5 11.5s-1.5 7.5 -1.5 11.5l-12 2c-4 0.666992 -8 1.5 -12 2.5s-7.66699 2.16699 -11 3.5l-6 1l-45 -32l18 43l-8 5c-25.333 14.667 -45 33.5 -59 56.5s-21 47.167 -21 72.5c0 43.333 17.833 80.333 53.5 111s78.5 46 128.5 46
c35.333 0 67.666 -8.33301 96.999 -25s51.666 -38.334 66.999 -65.001zM797.999 249.996c0 20.667 -4.66602 40.5 -13.999 59.5s-21.833 35.5 -37.5 49.5s-34.334 25 -56.001 33s-44.5 12 -68.5 12c-31.333 0 -60.5 -6.83301 -87.5 -20.5s-48.5 -32.334 -64.5 -56.001
s-24 -49.5 -24 -77.5c0 -42.667 17.167 -79 51.5 -109s75.833 -45 124.5 -45c18 0 35.667 2.33301 53 7l90 -62l-37 86c22 14.667 39.167 32.834 51.5 54.501s18.5 44.5 18.5 68.5zM709 140.996l-9.00098 -5.00195l14 -33l-35 25l-5 -2
c-17.333 -5.33301 -34.666 -8 -51.999 -8c-42 0 -78 12.833 -108 38.5s-45 56.834 -45 93.501s15 67.834 45 93.501s66 38.5 108 38.5c28 0 53.667 -5.83301 77 -17.5s42 -27.667 56 -48s21 -42.5 21 -66.5c0 -22 -6 -42.5 -18 -61.5s-28.333 -34.833 -49 -47.5z
M565.999 315.994c-6 0 -11.1689 -2.16602 -15.502 -6.49902s-6.5 -9.5 -6.5 -15.5c0 -2.66699 0.333008 -5 1 -7s1.83398 -4 3.50098 -6s3.33398 -3.66699 5.00098 -5s3.66699 -2.33301 6 -3s4.5 -1 6.5 -1c6.66699 0 12.167 2.16699 16.5 6.5s6.5 9.5 6.5 15.5
c0 2 -0.333008 3.83301 -1 5.5s-1.33398 3.16699 -2.00098 4.5s-1.5 2.66602 -2.5 3.99902s-2.16699 2.5 -3.5 3.5s-2.66602 1.83301 -3.99902 2.5s-2.83301 1.16699 -4.5 1.5s-3.5 0.5 -5.5 0.5zM678.997 315.995c-6 0 -11.167 -2.16699 -15.5 -6.5s-6.5 -9.5 -6.5 -15.5
s2.16699 -11.167 6.5 -15.5s9.5 -6.5 15.5 -6.5c3.33301 0 6.33301 0.5 9 1.5s5 2.5 7 4.5s3.5 4.5 4.5 7.5s1.5 6 1.5 9s-0.5 5.83301 -1.5 8.5s-2.5 5 -4.5 7s-4.33301 3.5 -7 4.5s-5.66699 1.5 -9 1.5z" />
    </font>
</defs>
</svg>
